<svg xmlns="http://www.w3.org/2000/svg" xmlns:xlink="http://www.w3.org/1999/xlink" id="body_1" preserveAspectRatio="xMinYMin meet" viewBox="0 0 793 1121"><defs><clipPath id="1"><path id="" clip-rule="evenodd" transform="matrix(1 0 0 1 0 0)" d="M0 841L0 -0.8900146L0 -0.8900146L595.28 -0.8900146L595.28 -0.8900146L595.28 841L595.28 841L0 841z" /></clipPath><clipPath id="2"><path id="" clip-rule="evenodd" transform="matrix(1 0 0 1 0 0)" d="M215 67.10999L225 67.10999C 225 67.10999 225 67.10999 225 67.10999L225 67.10999L225 79.10999C 225 79.10999 225 79.10999 225 79.10999L225 79.10999L215 79.10999C 215 79.10999 215 79.10999 215 79.10999L215 79.10999L215 67.10999C 215 67.10999 215 67.10999 215 67.10999z" /></clipPath><clipPath id="3"><path id="" clip-rule="evenodd" transform="matrix(1 0 0 1 0 0)" d="M331 67.10999L341 67.10999C 341 67.10999 341 67.10999 341 67.10999L341 67.10999L341 79.10999C 341 79.10999 341 79.10999 341 79.10999L341 79.10999L331 79.10999C 331 79.10999 331 79.10999 331 79.10999L331 79.10999L331 67.10999C 331 67.10999 331 67.10999 331 67.10999z" /></clipPath><clipPath id="4"><path id="" clip-rule="evenodd" transform="matrix(1 0 0 1 0 0)" d="M80 111.11L85 111.11C 85 111.11 85 111.11 85 111.11L85 111.11L85 116.11C 85 116.11 85 116.11 85 116.11L85 116.11L80 116.11C 80 116.11 80 116.11 80 116.11L80 116.11L80 111.11C 80 111.11 80 111.11 80 111.11z" /></clipPath><clipPath id="5"><path id="" clip-rule="evenodd" transform="matrix(1 0 0 1 0 0)" d="M130 111.11L135 111.11C 135 111.11 135 111.11 135 111.11L135 111.11L135 116.11C 135 116.11 135 116.11 135 116.11L135 116.11L130 116.11C 130 116.11 130 116.11 130 116.11L130 116.11L130 111.11C 130 111.11 130 111.11 130 111.11z" /></clipPath><clipPath id="6"><path id="" clip-rule="evenodd" transform="matrix(1 0 0 1 0 0)" d="M83 223.11L88 223.11C 88 223.11 88 223.11 88 223.11L88 223.11L88 228.11C 88 228.11 88 228.11 88 228.11L88 228.11L83 228.11C 83 228.11 83 228.11 83 228.11L83 228.11L83 223.11C 83 223.11 83 223.11 83 223.11z" /></clipPath><clipPath id="7"><path id="" clip-rule="evenodd" transform="matrix(1 0 0 1 0 0)" d="M127 223.11L132 223.11C 132 223.11 132 223.11 132 223.11L132 223.11L132 228.11C 132 228.11 132 228.11 132 228.11L132 228.11L127 228.11C 127 228.11 127 228.11 127 228.11L127 228.11L127 223.11C 127 223.11 127 223.11 127 223.11z" /></clipPath><clipPath id="8"><path id="" clip-rule="evenodd" transform="matrix(1 0 0 1 0 0)" d="M56 253.11L160 253.11C 160 253.11 160 253.11 160 253.11L160 253.11L160 255.11C 160 255.11 160 255.11 160 255.11L160 255.11L56 255.11C 56 255.11 56 255.11 56 255.11L56 255.11L56 253.11C 56 253.11 56 253.11 56 253.11z" /></clipPath><clipPath id="9"><path id="" clip-rule="evenodd" transform="matrix(1 0 0 1 0 0)" d="M56 253.11L160 253.11C 160 253.11 160 253.11 160 253.11L160 253.11L160 255.11C 160 255.11 160 255.11 160 255.11L160 255.11L56 255.11C 56 255.11 56 255.11 56 255.11L56 255.11L56 253.11C 56 253.11 56 253.11 56 253.11z" /></clipPath><clipPath id="10"><path id="" clip-rule="evenodd" transform="matrix(1 0 0 1 0 0)" d="M56 275.11L160 275.11C 160 275.11 160 275.11 160 275.11L160 275.11L160 277.11C 160 277.11 160 277.11 160 277.11L160 277.11L56 277.11C 56 277.11 56 277.11 56 277.11L56 277.11L56 275.11C 56 275.11 56 275.11 56 275.11z" /></clipPath><clipPath id="11"><path id="" clip-rule="evenodd" transform="matrix(1 0 0 1 0 0)" d="M56 275.11L160 275.11C 160 275.11 160 275.11 160 275.11L160 275.11L160 277.11C 160 277.11 160 277.11 160 277.11L160 277.11L56 277.11C 56 277.11 56 277.11 56 277.11L56 277.11L56 275.11C 56 275.11 56 275.11 56 275.11z" /></clipPath><clipPath id="12"><path id="" clip-rule="evenodd" transform="matrix(1 0 0 1 0 0)" d="M56 297.11L160 297.11C 160 297.11 160 297.11 160 297.11L160 297.11L160 299.11C 160 299.11 160 299.11 160 299.11L160 299.11L56 299.11C 56 299.11 56 299.11 56 299.11L56 299.11L56 297.11C 56 297.11 56 297.11 56 297.11z" /></clipPath><clipPath id="13"><path id="" clip-rule="evenodd" transform="matrix(1 0 0 1 0 0)" d="M56 297.11L160 297.11C 160 297.11 160 297.11 160 297.11L160 297.11L160 299.11C 160 299.11 160 299.11 160 299.11L160 299.11L56 299.11C 56 299.11 56 299.11 56 299.11L56 299.11L56 297.11C 56 297.11 56 297.11 56 297.11z" /></clipPath><clipPath id="14"><path id="" clip-rule="evenodd" transform="matrix(1 0 0 1 0 0)" d="M56 319.11L160 319.11C 160 319.11 160 319.11 160 319.11L160 319.11L160 321.11C 160 321.11 160 321.11 160 321.11L160 321.11L56 321.11C 56 321.11 56 321.11 56 321.11L56 321.11L56 319.11C 56 319.11 56 319.11 56 319.11z" /></clipPath><clipPath id="15"><path id="" clip-rule="evenodd" transform="matrix(1 0 0 1 0 0)" d="M56 319.11L139 319.11C 139 319.11 139 319.11 139 319.11L139 319.11L139 321.11C 139 321.11 139 321.11 139 321.11L139 321.11L56 321.11C 56 321.11 56 321.11 56 321.11L56 321.11L56 319.11C 56 319.11 56 319.11 56 319.11z" /></clipPath><clipPath id="16"><path id="" clip-rule="evenodd" transform="matrix(1 0 0 1 0 0)" d="M56 341.11L160 341.11C 160 341.11 160 341.11 160 341.11L160 341.11L160 343.11C 160 343.11 160 343.11 160 343.11L160 343.11L56 343.11C 56 343.11 56 343.11 56 343.11L56 343.11L56 341.11C 56 341.11 56 341.11 56 341.11z" /></clipPath><clipPath id="17"><path id="" clip-rule="evenodd" transform="matrix(1 0 0 1 0 0)" d="M56 341.11L160 341.11C 160 341.11 160 341.11 160 341.11L160 341.11L160 343.11C 160 343.11 160 343.11 160 343.11L160 343.11L56 343.11C 56 343.11 56 343.11 56 343.11L56 343.11L56 341.11C 56 341.11 56 341.11 56 341.11z" /></clipPath><clipPath id="18"><path id="" clip-rule="evenodd" transform="matrix(1 0 0 1 0 0)" d="M56 363.11L160 363.11C 160 363.11 160 363.11 160 363.11L160 363.11L160 365.11C 160 365.11 160 365.11 160 365.11L160 365.11L56 365.11C 56 365.11 56 365.11 56 365.11L56 365.11L56 363.11C 56 363.11 56 363.11 56 363.11z" /></clipPath><clipPath id="19"><path id="" clip-rule="evenodd" transform="matrix(1 0 0 1 0 0)" d="M56 363.11L160 363.11C 160 363.11 160 363.11 160 363.11L160 363.11L160 365.11C 160 365.11 160 365.11 160 365.11L160 365.11L56 365.11C 56 365.11 56 365.11 56 365.11L56 365.11L56 363.11C 56 363.11 56 363.11 56 363.11z" /></clipPath><clipPath id="20"><path id="" clip-rule="evenodd" transform="matrix(1 0 0 1 0 0)" d="M56 385.11L160 385.11C 160 385.11 160 385.11 160 385.11L160 385.11L160 387.11C 160 387.11 160 387.11 160 387.11L160 387.11L56 387.11C 56 387.11 56 387.11 56 387.11L56 387.11L56 385.11C 56 385.11 56 385.11 56 385.11z" /></clipPath><clipPath id="21"><path id="" clip-rule="evenodd" transform="matrix(1 0 0 1 0 0)" d="M56 385.11L139 385.11C 139 385.11 139 385.11 139 385.11L139 385.11L139 387.11C 139 387.11 139 387.11 139 387.11L139 387.11L56 387.11C 56 387.11 56 387.11 56 387.11L56 387.11L56 385.11C 56 385.11 56 385.11 56 385.11z" /></clipPath><clipPath id="22"><path id="" clip-rule="evenodd" transform="matrix(1 0 0 1 0 0)" d="M56 407.11L160 407.11C 160 407.11 160 407.11 160 407.11L160 407.11L160 409.11C 160 409.11 160 409.11 160 409.11L160 409.11L56 409.11C 56 409.11 56 409.11 56 409.11L56 409.11L56 407.11C 56 407.11 56 407.11 56 407.11z" /></clipPath><clipPath id="23"><path id="" clip-rule="evenodd" transform="matrix(1 0 0 1 0 0)" d="M56 407.11L139 407.11C 139 407.11 139 407.11 139 407.11L139 407.11L139 409.11C 139 409.11 139 409.11 139 409.11L139 409.11L56 409.11C 56 409.11 56 409.11 56 409.11L56 409.11L56 407.11C 56 407.11 56 407.11 56 407.11z" /></clipPath><clipPath id="24"><path id="" clip-rule="evenodd" transform="matrix(1 0 0 1 0 0)" d="M56 429.11L160 429.11C 160 429.11 160 429.11 160 429.11L160 429.11L160 431.11C 160 431.11 160 431.11 160 431.11L160 431.11L56 431.11C 56 431.11 56 431.11 56 431.11L56 431.11L56 429.11C 56 429.11 56 429.11 56 429.11z" /></clipPath><clipPath id="25"><path id="" clip-rule="evenodd" transform="matrix(1 0 0 1 0 0)" d="M56 429.11L160 429.11C 160 429.11 160 429.11 160 429.11L160 429.11L160 431.11C 160 431.11 160 431.11 160 431.11L160 431.11L56 431.11C 56 431.11 56 431.11 56 431.11L56 431.11L56 429.11C 56 429.11 56 429.11 56 429.11z" /></clipPath><clipPath id="26"><path id="" clip-rule="evenodd" transform="matrix(1 0 0 1 0 0)" d="M56 451.11L160 451.11C 160 451.11 160 451.11 160 451.11L160 451.11L160 453.11C 160 453.11 160 453.11 160 453.11L160 453.11L56 453.11C 56 453.11 56 453.11 56 453.11L56 453.11L56 451.11C 56 451.11 56 451.11 56 451.11z" /></clipPath><clipPath id="27"><path id="" clip-rule="evenodd" transform="matrix(1 0 0 1 0 0)" d="M56 451.11L160 451.11C 160 451.11 160 451.11 160 451.11L160 451.11L160 453.11C 160 453.11 160 453.11 160 453.11L160 453.11L56 453.11C 56 453.11 56 453.11 56 453.11L56 453.11L56 451.11C 56 451.11 56 451.11 56 451.11z" /></clipPath><clipPath id="28"><path id="" clip-rule="evenodd" transform="matrix(1 0 0 1 0 0)" d="M73 471.11L78 471.11C 78 471.11 78 471.11 78 471.11L78 471.11L78 476.11C 78 476.11 78 476.11 78 476.11L78 476.11L73 476.11C 73 476.11 73 476.11 73 476.11L73 476.11L73 471.11C 73 471.11 73 471.11 73 471.11z" /></clipPath><clipPath id="29"><path id="" clip-rule="evenodd" transform="matrix(1 0 0 1 0 0)" d="M137 471.11L142 471.11C 142 471.11 142 471.11 142 471.11L142 471.11L142 476.11C 142 476.11 142 476.11 142 476.11L142 476.11L137 476.11C 137 476.11 137 476.11 137 476.11L137 476.11L137 471.11C 137 471.11 137 471.11 137 471.11z" /></clipPath><clipPath id="30"><path id="" clip-rule="evenodd" transform="matrix(1 0 0 1 0 0)" d="M56 501.11L160 501.11C 160 501.11 160 501.11 160 501.11L160 501.11L160 503.11C 160 503.11 160 503.11 160 503.11L160 503.11L56 503.11C 56 503.11 56 503.11 56 503.11L56 503.11L56 501.11C 56 501.11 56 501.11 56 501.11z" /></clipPath><clipPath id="31"><path id="" clip-rule="evenodd" transform="matrix(1 0 0 1 0 0)" d="M56 501.11L118 501.11C 118 501.11 118 501.11 118 501.11L118 501.11L118 503.11C 118 503.11 118 503.11 118 503.11L118 503.11L56 503.11C 56 503.11 56 503.11 56 503.11L56 503.11L56 501.11C 56 501.11 56 501.11 56 501.11z" /></clipPath><clipPath id="32"><path id="" clip-rule="evenodd" transform="matrix(1 0 0 1 0 0)" d="M56 523.11L160 523.11C 160 523.11 160 523.11 160 523.11L160 523.11L160 525.11C 160 525.11 160 525.11 160 525.11L160 525.11L56 525.11C 56 525.11 56 525.11 56 525.11L56 525.11L56 523.11C 56 523.11 56 523.11 56 523.11z" /></clipPath><clipPath id="33"><path id="" clip-rule="evenodd" transform="matrix(1 0 0 1 0 0)" d="M56 523.11L160 523.11C 160 523.11 160 523.11 160 523.11L160 523.11L160 525.11C 160 525.11 160 525.11 160 525.11L160 525.11L56 525.11C 56 525.11 56 525.11 56 525.11L56 525.11L56 523.11C 56 523.11 56 523.11 56 523.11z" /></clipPath><clipPath id="34"><path id="" clip-rule="evenodd" transform="matrix(1 0 0 1 0 0)" d="M184 107.11L196 107.11C 196 107.11 196 107.11 196 107.11L196 107.11L196 119.11C 196 119.11 196 119.11 196 119.11L196 119.11L184 119.11C 184 119.11 184 119.11 184 119.11L184 119.11L184 107.11C 184 107.11 184 107.11 184 107.11z" /></clipPath><clipPath id="35"><path id="" clip-rule="evenodd" transform="matrix(1 0 0 1 0 0)" d="M189 133.11L190 133.11C 190 133.11 190 133.11 190 133.11L190 133.11L190 147.11C 190 147.11 190 147.11 190 147.11L190 147.11L189 147.11C 189 147.11 189 147.11 189 147.11L189 147.11L189 133.11C 189 133.11 189 133.11 189 133.11z" /></clipPath><clipPath id="36"><path id="" clip-rule="evenodd" transform="matrix(1 0 0 1 0 0)" d="M187 129.11L192 129.11C 192 129.11 192 129.11 192 129.11L192 129.11L192 134.11C 192 134.11 192 134.11 192 134.11L192 134.11L187 134.11C 187 134.11 187 134.11 187 134.11L187 134.11L187 129.11C 187 129.11 187 129.11 187 129.11z" /></clipPath><clipPath id="37"><path id="" clip-rule="evenodd" transform="matrix(1 0 0 1 0 0)" d="M184 166.11L196 166.11C 196 166.11 196 166.11 196 166.11L196 166.11L196 178.11C 196 178.11 196 178.11 196 178.11L196 178.11L184 178.11C 184 178.11 184 178.11 184 178.11L184 178.11L184 166.11C 184 166.11 184 166.11 184 166.11z" /></clipPath><clipPath id="38"><path id="" clip-rule="evenodd" transform="matrix(1 0 0 1 0 0)" d="M189 192.11L190 192.11C 190 192.11 190 192.11 190 192.11L190 192.11L190 320.11C 190 320.11 190 320.11 190 320.11L190 320.11L189 320.11C 189 320.11 189 320.11 189 320.11L189 320.11L189 192.11C 189 192.11 189 192.11 189 192.11z" /></clipPath><clipPath id="39"><path id="" clip-rule="evenodd" transform="matrix(1 0 0 1 0 0)" d="M187 188.11L192 188.11C 192 188.11 192 188.11 192 188.11L192 188.11L192 193.11C 192 193.11 192 193.11 192 193.11L192 193.11L187 193.11C 187 193.11 187 193.11 187 193.11L187 193.11L187 188.11C 187 188.11 187 188.11 187 188.11z" /></clipPath><clipPath id="40"><path id="" clip-rule="evenodd" transform="matrix(1 0 0 1 0 0)" d="M189 320.11L190 320.11C 190 320.11 190 320.11 190 320.11L190 320.11L190 461.11C 190 461.11 190 461.11 190 461.11L190 461.11L189 461.11C 189 461.11 189 461.11 189 461.11L189 461.11L189 320.11C 189 320.11 189 320.11 189 320.11z" /></clipPath><clipPath id="41"><path id="" clip-rule="evenodd" transform="matrix(1 0 0 1 0 0)" d="M187 316.11L192 316.11C 192 316.11 192 316.11 192 316.11L192 316.11L192 321.11C 192 321.11 192 321.11 192 321.11L192 321.11L187 321.11C 187 321.11 187 321.11 187 321.11L187 321.11L187 316.11C 187 316.11 187 316.11 187 316.11z" /></clipPath><clipPath id="42"><path id="" clip-rule="evenodd" transform="matrix(1 0 0 1 0 0)" d="M189 461.11L190 461.11C 190 461.11 190 461.11 190 461.11L190 461.11L190 537.11C 190 537.11 190 537.11 190 537.11L190 537.11L189 537.11C 189 537.11 189 537.11 189 537.11L189 537.11L189 461.11C 189 461.11 189 461.11 189 461.11z" /></clipPath><clipPath id="43"><path id="" clip-rule="evenodd" transform="matrix(1 0 0 1 0 0)" d="M187 457.11L192 457.11C 192 457.11 192 457.11 192 457.11L192 457.11L192 462.11C 192 462.11 192 462.11 192 462.11L192 462.11L187 462.11C 187 462.11 187 462.11 187 462.11L187 462.11L187 457.11C 187 457.11 187 457.11 187 457.11z" /></clipPath><clipPath id="44"><path id="" clip-rule="evenodd" transform="matrix(1 0 0 1 0 0)" d="M184 556.11L196 556.11C 196 556.11 196 556.11 196 556.11L196 556.11L196 568.11C 196 568.11 196 568.11 196 568.11L196 568.11L184 568.11C 184 568.11 184 568.11 184 568.11L184 568.11L184 556.11C 184 556.11 184 556.11 184 556.11z" /></clipPath><clipPath id="45"><path id="" clip-rule="evenodd" transform="matrix(1 0 0 1 0 0)" d="M189 582.11L190 582.11C 190 582.11 190 582.11 190 582.11L190 582.11L190 619.11C 190 619.11 190 619.11 190 619.11L190 619.11L189 619.11C 189 619.11 189 619.11 189 619.11L189 619.11L189 582.11C 189 582.11 189 582.11 189 582.11z" /></clipPath><clipPath id="46"><path id="" clip-rule="evenodd" transform="matrix(1 0 0 1 0 0)" d="M187 578.11L192 578.11C 192 578.11 192 578.11 192 578.11L192 578.11L192 583.11C 192 583.11 192 583.11 192 583.11L192 583.11L187 583.11C 187 583.11 187 583.11 187 583.11L187 583.11L187 578.11C 187 578.11 187 578.11 187 578.11z" /></clipPath><clipPath id="47"><path id="" clip-rule="evenodd" transform="matrix(1 0 0 1 0 0)" d="M184 638.11L196 638.11C 196 638.11 196 638.11 196 638.11L196 638.11L196 650.11C 196 650.11 196 650.11 196 650.11L196 650.11L184 650.11C 184 650.11 184 650.11 184 650.11L184 650.11L184 638.11C 184 638.11 184 638.11 184 638.11z" /></clipPath><clipPath id="48"><path id="" clip-rule="evenodd" transform="matrix(1 0 0 1 0 0)" d="M189 664.11L190 664.11C 190 664.11 190 664.11 190 664.11L190 664.11L190 753.11C 190 753.11 190 753.11 190 753.11L190 753.11L189 753.11C 189 753.11 189 753.11 189 753.11L189 753.11L189 664.11C 189 664.11 189 664.11 189 664.11z" /></clipPath><clipPath id="49"><path id="" clip-rule="evenodd" transform="matrix(1 0 0 1 0 0)" d="M187 660.11L192 660.11C 192 660.11 192 660.11 192 660.11L192 660.11L192 665.11C 192 665.11 192 665.11 192 665.11L192 665.11L187 665.11C 187 665.11 187 665.11 187 665.11L187 665.11L187 660.11C 187 660.11 187 660.11 187 660.11z" /></clipPath></defs><g transform="matrix(1.333333 0 0 1.333333 0 0)"><g clip-path="url(#1)"><g clip-path="url(#2)"><g transform="matrix(0.125 0 0 0.125 215 67.10999)"><g transform="matrix(1 0 0 1 0 0)"><image x="0" y="0" xlink:href="img_01.png" width="80" height="96" /></g></g></g><g clip-path="url(#3)"><g transform="matrix(0.125 0 0 0.125 331 67.10999)"><g transform="matrix(1 0 0 1 0 0)"><image x="0" y="0" xlink:href="img_02.png" width="80" height="96" /></g></g></g><g clip-path="url(#4)"><g transform="matrix(0.08333334 0 0 0.08333334 80 111.11)"><g transform="matrix(1 0 0 1 0 0)"><image x="0" y="0" xlink:href="img_03.png" width="60" height="60" /></g></g></g><g clip-path="url(#5)"><g transform="matrix(0.08333334 0 0 0.08333334 130 111.11)"><g transform="matrix(1 0 0 1 0 0)"><image x="0" y="0" xlink:href="img_03.png" width="60" height="60" /></g></g></g><path id="144" transform="matrix(1 0 0 -1 0 841)" d="M59.2335 639.575L156.7665 639.575" stroke="#0F141F" stroke-width="0.5" fill="none" /><g clip-path="url(#6)"><g transform="matrix(0.08333334 0 0 0.08333334 83 223.11)"><g transform="matrix(1 0 0 1 0 0)"><image x="0" y="0" xlink:href="img_03.png" width="60" height="60" /></g></g></g><g clip-path="url(#7)"><g transform="matrix(0.08333334 0 0 0.08333334 127 223.11)"><g transform="matrix(1 0 0 1 0 0)"><image x="0" y="0" xlink:href="img_03.png" width="60" height="60" /></g></g></g><g clip-path="url(#8)"><path id="169" transform="matrix(1 0 0 -1 0 841)" d="M56 587.89L160 587.89L160 585.89L56 585.89z" stroke="none" fill="#CFD6E6" fill-rule="nonzero" /></g><g clip-path="url(#9)"><path id="170" transform="matrix(1 0 0 -1 0 841)" d="M56 587.89L160 587.89L160 585.89L56 585.89z" stroke="none" fill="#0F141F" fill-rule="nonzero" /></g><g clip-path="url(#10)"><path id="189" transform="matrix(1 0 0 -1 0 841)" d="M56 565.89L160 565.89L160 563.89L56 563.89z" stroke="none" fill="#CFD6E6" fill-rule="nonzero" /></g><g clip-path="url(#11)"><path id="190" transform="matrix(1 0 0 -1 0 841)" d="M56 565.89L160 565.89L160 563.89L56 563.89z" stroke="none" fill="#0F141F" fill-rule="nonzero" /></g><g clip-path="url(#12)"><path id="211" transform="matrix(1 0 0 -1 0 841)" d="M56 543.89L160 543.89L160 541.89L56 541.89z" stroke="none" fill="#CFD6E6" fill-rule="nonzero" /></g><g clip-path="url(#13)"><path id="212" transform="matrix(1 0 0 -1 0 841)" d="M56 543.89L160 543.89L160 541.89L56 541.89z" stroke="none" fill="#0F141F" fill-rule="nonzero" /></g><g clip-path="url(#14)"><path id="237" transform="matrix(1 0 0 -1 0 841)" d="M56 521.89L160 521.89L160 519.89L56 519.89z" stroke="none" fill="#CFD6E6" fill-rule="nonzero" /></g><g clip-path="url(#15)"><path id="238" transform="matrix(1 0 0 -1 0 841)" d="M56 521.89L139 521.89L139 519.89L56 519.89z" stroke="none" fill="#0F141F" fill-rule="nonzero" /></g><g clip-path="url(#16)"><path id="255" transform="matrix(1 0 0 -1 0 841)" d="M56 499.89L160 499.89L160 497.89L56 497.89z" stroke="none" fill="#CFD6E6" fill-rule="nonzero" /></g><g clip-path="url(#17)"><path id="256" transform="matrix(1 0 0 -1 0 841)" d="M56 499.89L160 499.89L160 497.89L56 497.89z" stroke="none" fill="#0F141F" fill-rule="nonzero" /></g><g clip-path="url(#18)"><path id="275" transform="matrix(1 0 0 -1 0 841)" d="M56 477.89L160 477.89L160 475.89L56 475.89z" stroke="none" fill="#CFD6E6" fill-rule="nonzero" /></g><g clip-path="url(#19)"><path id="276" transform="matrix(1 0 0 -1 0 841)" d="M56 477.89L160 477.89L160 475.89L56 475.89z" stroke="none" fill="#0F141F" fill-rule="nonzero" /></g><g clip-path="url(#20)"><path id="291" transform="matrix(1 0 0 -1 0 841)" d="M56 455.89L160 455.89L160 453.89L56 453.89z" stroke="none" fill="#CFD6E6" fill-rule="nonzero" /></g><g clip-path="url(#21)"><path id="292" transform="matrix(1 0 0 -1 0 841)" d="M56 455.89L139 455.89L139 453.89L56 453.89z" stroke="none" fill="#0F141F" fill-rule="nonzero" /></g><g clip-path="url(#22)"><path id="304" transform="matrix(1 0 0 -1 0 841)" d="M56 433.89L160 433.89L160 431.89L56 431.89z" stroke="none" fill="#CFD6E6" fill-rule="nonzero" /></g><g clip-path="url(#23)"><path id="305" transform="matrix(1 0 0 -1 0 841)" d="M56 433.89L139 433.89L139 431.89L56 431.89z" stroke="none" fill="#0F141F" fill-rule="nonzero" /></g><g clip-path="url(#24)"><path id="328" transform="matrix(1 0 0 -1 0 841)" d="M56 411.89L160 411.89L160 409.89L56 409.89z" stroke="none" fill="#CFD6E6" fill-rule="nonzero" /></g><g clip-path="url(#25)"><path id="329" transform="matrix(1 0 0 -1 0 841)" d="M56 411.89L160 411.89L160 409.89L56 409.89z" stroke="none" fill="#0F141F" fill-rule="nonzero" /></g><g clip-path="url(#26)"><path id="346" transform="matrix(1 0 0 -1 0 841)" d="M56 389.89L160 389.89L160 387.89L56 387.89z" stroke="none" fill="#CFD6E6" fill-rule="nonzero" /></g><g clip-path="url(#27)"><path id="347" transform="matrix(1 0 0 -1 0 841)" d="M56 389.89L160 389.89L160 387.89L56 387.89z" stroke="none" fill="#0F141F" fill-rule="nonzero" /></g><g clip-path="url(#28)"><g transform="matrix(0.08333334 0 0 0.08333334 73 471.11)"><g transform="matrix(1 0 0 1 0 0)"><image x="0" y="0" xlink:href="img_03.png" width="60" height="60" /></g></g></g><g clip-path="url(#29)"><g transform="matrix(0.08333334 0 0 0.08333334 137 471.11)"><g transform="matrix(1 0 0 1 0 0)"><image x="0" y="0" xlink:href="img_03.png" width="60" height="60" /></g></g></g><g clip-path="url(#30)"><path id="366" transform="matrix(1 0 0 -1 0 841)" d="M56 339.89L160 339.89L160 337.89L56 337.89z" stroke="none" fill="#CFD6E6" fill-rule="nonzero" /></g><g clip-path="url(#31)"><path id="367" transform="matrix(1 0 0 -1 0 841)" d="M56 339.89L118 339.89L118 337.89L56 337.89z" stroke="none" fill="#0F141F" fill-rule="nonzero" /></g><g clip-path="url(#32)"><path id="375" transform="matrix(1 0 0 -1 0 841)" d="M56 317.89L160 317.89L160 315.89L56 315.89z" stroke="none" fill="#CFD6E6" fill-rule="nonzero" /></g><g clip-path="url(#33)"><path id="376" transform="matrix(1 0 0 -1 0 841)" d="M56 317.89L160 317.89L160 315.89L56 315.89z" stroke="none" fill="#0F141F" fill-rule="nonzero" /></g><g clip-path="url(#34)"><g transform="matrix(0.125 0 0 0.125 184 107.11)"><g transform="matrix(1 0 0 1 0 0)"><image x="0" y="0" xlink:href="img_04.png" width="96" height="96" /></g></g></g><g clip-path="url(#35)"><path id="385" transform="matrix(1 0 0 -1 0 841)" d="M189 707.89L190 707.89L190 693.89L189 693.89z" stroke="none" fill="#0F141F" fill-rule="nonzero" /></g><g clip-path="url(#36)"><g transform="matrix(0.08333334 0 0 0.08333334 187 129.11)"><g transform="matrix(1 0 0 1 0 0)"><image x="0" y="0" xlink:href="img_03.png" width="60" height="60" /></g></g></g><g clip-path="url(#37)"><g transform="matrix(0.125 0 0 0.125 184 166.11)"><g transform="matrix(1 0 0 1 0 0)"><image x="0" y="0" xlink:href="img_05.png" width="96" height="96" /></g></g></g><g clip-path="url(#38)"><path id="547" transform="matrix(1 0 0 -1 0 841)" d="M189 648.89L190 648.89L190 520.89L189 520.89z" stroke="none" fill="#0F141F" fill-rule="nonzero" /></g><g clip-path="url(#39)"><g transform="matrix(0.08333334 0 0 0.08333334 187 188.11)"><g transform="matrix(1 0 0 1 0 0)"><image x="0" y="0" xlink:href="img_03.png" width="60" height="60" /></g></g></g><g clip-path="url(#40)"><path id="1095" transform="matrix(1 0 0 -1 0 841)" d="M189 520.89L190 520.89L190 379.89L189 379.89z" stroke="none" fill="#0F141F" fill-rule="nonzero" /></g><g clip-path="url(#41)"><g transform="matrix(0.08333334 0 0 0.08333334 187 316.11)"><g transform="matrix(1 0 0 1 0 0)"><image x="0" y="0" xlink:href="img_03.png" width="60" height="60" /></g></g></g><g clip-path="url(#42)"><path id="1648" transform="matrix(1 0 0 -1 0 841)" d="M189 379.89L190 379.89L190 303.89L189 303.89z" stroke="none" fill="#0F141F" fill-rule="nonzero" /></g><g clip-path="url(#43)"><g transform="matrix(0.08333334 0 0 0.08333334 187 457.11)"><g transform="matrix(1 0 0 1 0 0)"><image x="0" y="0" xlink:href="img_03.png" width="60" height="60" /></g></g></g><g clip-path="url(#44)"><g transform="matrix(0.125 0 0 0.125 184 556.11)"><g transform="matrix(1 0 0 1 0 0)"><image x="0" y="0" xlink:href="img_06.png" width="96" height="96" /></g></g></g><g clip-path="url(#45)"><path id="1961" transform="matrix(1 0 0 -1 0 841)" d="M189 258.89L190 258.89L190 221.89L189 221.89z" stroke="none" fill="#0F141F" fill-rule="nonzero" /></g><g clip-path="url(#46)"><g transform="matrix(0.08333334 0 0 0.08333334 187 578.11)"><g transform="matrix(1 0 0 1 0 0)"><image x="0" y="0" xlink:href="img_03.png" width="60" height="60" /></g></g></g><g clip-path="url(#47)"><g transform="matrix(0.125 0 0 0.125 184 638.11)"><g transform="matrix(1 0 0 1 0 0)"><image x="0" y="0" xlink:href="img_07.png" width="96" height="96" /></g></g></g><g clip-path="url(#48)"><path id="2078" transform="matrix(1 0 0 -1 0 841)" d="M189 176.89L190 176.89L190 87.89001L189 87.89001z" stroke="none" fill="#0F141F" fill-rule="nonzero" /></g><g clip-path="url(#49)"><g transform="matrix(0.08333334 0 0 0.08333334 187 660.11)"><g transform="matrix(1 0 0 1 0 0)"><image x="0" y="0" xlink:href="img_03.png" width="60" height="60" /></g></g></g></g></g></svg>