<svg xmlns="http://www.w3.org/2000/svg" xmlns:xlink="http://www.w3.org/1999/xlink" id="body_1" preserveAspectRatio="xMinYMin meet" viewBox="0 0 793 1123"><defs><clipPath id="1"><path id="" clip-rule="evenodd" transform="matrix(1 0 0 1 0 0)" d="M0 842L0 0L0 0L595 0L595 0L595 842L595 842L0 842z" /></clipPath><clipPath id="2"><path id="" clip-rule="evenodd" transform="matrix(1 0 0 1 0 0)" d="M39.72 31.08002L549.96 31.08002L549.96 31.08002L549.96 75.47998L549.96 75.47998L39.72 75.47998z" /></clipPath><clipPath id="3"><path id="" clip-rule="evenodd" transform="matrix(1 0 0 1 0 0)" d="M39 76L550 76L550 76L550 31L550 31L39 31z" /></clipPath><clipPath id="4"><path id="" clip-rule="evenodd" transform="matrix(1 0 0 1 0 0)" d="M39.72 31.08002L549.96 31.08002L549.96 31.08002L549.96 75.47998L549.96 75.47998L39.72 75.47998z" /></clipPath><clipPath id="5"><path id="" clip-rule="evenodd" transform="matrix(1 0 0 1 0 0)" d="M39 76L550 76L550 76L550 31L550 31L39 31z" /></clipPath><clipPath id="6"><path id="" clip-rule="evenodd" transform="matrix(1 0 0 1 0 0)" d="M138.84 53.88L389.16 53.88L389.16 53.88L389.16 75.47998L389.16 75.47998L138.84 75.47998z" /></clipPath><clipPath id="7"><path id="" clip-rule="evenodd" transform="matrix(1 0 0 1 0 0)" d="M138.84 53.88L389.16 53.88L389.16 53.88L389.16 75.47998L389.16 75.47998L138.84 75.47998z" /></clipPath><clipPath id="8"><path id="" clip-rule="evenodd" transform="matrix(1 0 0 1 0 0)" d="M138 76L390 76L390 76L390 53L390 53L138 53z" /></clipPath><clipPath id="9"><path id="" clip-rule="evenodd" transform="matrix(1 0 0 1 0 0)" d="M389.16 53.88L450.84 53.88L450.84 53.88L450.84 75.47998L450.84 75.47998L389.16 75.47998z" /></clipPath><clipPath id="10"><path id="" clip-rule="evenodd" transform="matrix(1 0 0 1 0 0)" d="M389.16 53.88L450.84 53.88L450.84 53.88L450.84 75.47998L450.84 75.47998L389.16 75.47998z" /></clipPath><clipPath id="11"><path id="" clip-rule="evenodd" transform="matrix(1 0 0 1 0 0)" d="M389 76L451 76L451 76L451 53L451 53L389 53z" /></clipPath><clipPath id="12"><path id="" clip-rule="evenodd" transform="matrix(1 0 0 1 0 0)" d="M39.72 31.08002L549.96 31.08002L549.96 31.08002L549.96 75.47998L549.96 75.47998L39.72 75.47998z" /></clipPath><clipPath id="13"><path id="" clip-rule="evenodd" transform="matrix(1 0 0 1 0 0)" d="M39 76L550 76L550 76L550 31L550 31L39 31z" /></clipPath><clipPath id="14"><path id="" clip-rule="evenodd" transform="matrix(1 0 0 1 0 0)" d="M39.72 99.71997L184.2 99.71997L184.2 99.71997L184.2 719.88L184.2 719.88L39.72 719.88z" /></clipPath><clipPath id="15"><path id="" clip-rule="evenodd" transform="matrix(1 0 0 1 0 0)" d="M39 720L185 720L185 720L185 99L185 99L39 99z" /></clipPath><clipPath id="16"><path id="" clip-rule="evenodd" transform="matrix(1 0 0 1 0 0)" d="M39.72 99.71997L184.2 99.71997L184.2 99.71997L184.2 719.88L184.2 719.88L39.72 719.88z" /></clipPath><clipPath id="17"><path id="" clip-rule="evenodd" transform="matrix(1 0 0 1 0 0)" d="M61.56 210.12L162.6 210.12L162.6 210.12L162.6 223.08L162.6 223.08L61.56 223.08z" /></clipPath><clipPath id="18"><path id="" clip-rule="evenodd" transform="matrix(1 0 0 1 0 0)" d="M39.72 99.71997L184.2 99.71997L184.2 99.71997L184.2 719.88L184.2 719.88L39.72 719.88z" /></clipPath><clipPath id="19"><path id="" clip-rule="evenodd" transform="matrix(1 0 0 1 0 0)" d="M61.56 223.08L161.64 223.08L161.64 223.08L161.64 225.24L161.64 225.24L61.56 225.24z" /></clipPath><clipPath id="20"><path id="" clip-rule="evenodd" transform="matrix(1 0 0 1 0 0)" d="M61.56 223.08L161.64 223.08L161.64 223.08L161.64 225.24L161.64 225.24L61.56 225.24z" /></clipPath><clipPath id="21"><path id="" clip-rule="evenodd" transform="matrix(1 0 0 1 0 0)" d="M61 226L162 226L162 226L162 223L162 223L61 223z" /></clipPath><clipPath id="22"><path id="" clip-rule="evenodd" transform="matrix(1 0 0 1 0 0)" d="M61.56 223.08L161.64 223.08L161.64 223.08L161.64 225.24L161.64 225.24L61.56 225.24z" /></clipPath><clipPath id="23"><path id="" clip-rule="evenodd" transform="matrix(1 0 0 1 0 0)" d="M61 226L162 226L162 226L162 223L162 223L61 223z" /></clipPath><clipPath id="24"><path id="" clip-rule="evenodd" transform="matrix(1 0 0 1 0 0)" d="M39.72 99.71997L184.2 99.71997L184.2 99.71997L184.2 719.88L184.2 719.88L39.72 719.88z" /></clipPath><clipPath id="25"><path id="" clip-rule="evenodd" transform="matrix(1 0 0 1 0 0)" d="M161.64 223.08L162.6 223.08L162.6 223.08L162.6 225.24L162.6 225.24L161.64 225.24z" /></clipPath><clipPath id="26"><path id="" clip-rule="evenodd" transform="matrix(1 0 0 1 0 0)" d="M161.64 223.08L162.6 223.08L162.6 223.08L162.6 225.24L162.6 225.24L161.64 225.24z" /></clipPath><clipPath id="27"><path id="" clip-rule="evenodd" transform="matrix(1 0 0 1 0 0)" d="M161 226L163 226L163 226L163 223L163 223L161 223z" /></clipPath><clipPath id="28"><path id="" clip-rule="evenodd" transform="matrix(1 0 0 1 0 0)" d="M161.64 223.08L162.6 223.08L162.6 223.08L162.6 225.24L162.6 225.24L161.64 225.24z" /></clipPath><clipPath id="29"><path id="" clip-rule="evenodd" transform="matrix(1 0 0 1 0 0)" d="M161 226L163 226L163 226L163 223L163 223L161 223z" /></clipPath><clipPath id="30"><path id="" clip-rule="evenodd" transform="matrix(1 0 0 1 0 0)" d="M39.72 99.71997L184.2 99.71997L184.2 99.71997L184.2 719.88L184.2 719.88L39.72 719.88z" /></clipPath><clipPath id="31"><path id="" clip-rule="evenodd" transform="matrix(1 0 0 1 0 0)" d="M61.56 232.92L162.6 232.92L162.6 232.92L162.6 245.64L162.6 245.64L61.56 245.64z" /></clipPath><clipPath id="32"><path id="" clip-rule="evenodd" transform="matrix(1 0 0 1 0 0)" d="M39.72 99.71997L184.2 99.71997L184.2 99.71997L184.2 719.88L184.2 719.88L39.72 719.88z" /></clipPath><clipPath id="33"><path id="" clip-rule="evenodd" transform="matrix(1 0 0 1 0 0)" d="M61.56 245.64L161.64 245.64L161.64 245.64L161.64 248.04L161.64 248.04L61.56 248.04z" /></clipPath><clipPath id="34"><path id="" clip-rule="evenodd" transform="matrix(1 0 0 1 0 0)" d="M61.56 245.64L161.64 245.64L161.64 245.64L161.64 248.04L161.64 248.04L61.56 248.04z" /></clipPath><clipPath id="35"><path id="" clip-rule="evenodd" transform="matrix(1 0 0 1 0 0)" d="M61 249L162 249L162 249L162 245L162 245L61 245z" /></clipPath><clipPath id="36"><path id="" clip-rule="evenodd" transform="matrix(1 0 0 1 0 0)" d="M61.56 245.64L161.64 245.64L161.64 245.64L161.64 248.04L161.64 248.04L61.56 248.04z" /></clipPath><clipPath id="37"><path id="" clip-rule="evenodd" transform="matrix(1 0 0 1 0 0)" d="M61 249L162 249L162 249L162 245L162 245L61 245z" /></clipPath><clipPath id="38"><path id="" clip-rule="evenodd" transform="matrix(1 0 0 1 0 0)" d="M39.72 99.71997L184.2 99.71997L184.2 99.71997L184.2 719.88L184.2 719.88L39.72 719.88z" /></clipPath><clipPath id="39"><path id="" clip-rule="evenodd" transform="matrix(1 0 0 1 0 0)" d="M161.64 245.64L162.6 245.64L162.6 245.64L162.6 248.04L162.6 248.04L161.64 248.04z" /></clipPath><clipPath id="40"><path id="" clip-rule="evenodd" transform="matrix(1 0 0 1 0 0)" d="M161.64 245.64L162.6 245.64L162.6 245.64L162.6 248.04L162.6 248.04L161.64 248.04z" /></clipPath><clipPath id="41"><path id="" clip-rule="evenodd" transform="matrix(1 0 0 1 0 0)" d="M161 249L163 249L163 249L163 245L163 245L161 245z" /></clipPath><clipPath id="42"><path id="" clip-rule="evenodd" transform="matrix(1 0 0 1 0 0)" d="M161.64 245.64L162.6 245.64L162.6 245.64L162.6 248.04L162.6 248.04L161.64 248.04z" /></clipPath><clipPath id="43"><path id="" clip-rule="evenodd" transform="matrix(1 0 0 1 0 0)" d="M161 249L163 249L163 249L163 245L163 245L161 245z" /></clipPath><clipPath id="44"><path id="" clip-rule="evenodd" transform="matrix(1 0 0 1 0 0)" d="M39.72 99.71997L184.2 99.71997L184.2 99.71997L184.2 719.88L184.2 719.88L39.72 719.88z" /></clipPath><clipPath id="45"><path id="" clip-rule="evenodd" transform="matrix(1 0 0 1 0 0)" d="M61.56 255.72L162.6 255.72L162.6 255.72L162.6 268.44L162.6 268.44L61.56 268.44z" /></clipPath><clipPath id="46"><path id="" clip-rule="evenodd" transform="matrix(1 0 0 1 0 0)" d="M39.72 99.71997L184.2 99.71997L184.2 99.71997L184.2 719.88L184.2 719.88L39.72 719.88z" /></clipPath><clipPath id="47"><path id="" clip-rule="evenodd" transform="matrix(1 0 0 1 0 0)" d="M61.56 268.44L161.64 268.44L161.64 268.44L161.64 270.6L161.64 270.6L61.56 270.6z" /></clipPath><clipPath id="48"><path id="" clip-rule="evenodd" transform="matrix(1 0 0 1 0 0)" d="M61.56 268.44L161.64 268.44L161.64 268.44L161.64 270.6L161.64 270.6L61.56 270.6z" /></clipPath><clipPath id="49"><path id="" clip-rule="evenodd" transform="matrix(1 0 0 1 0 0)" d="M61 271L162 271L162 271L162 268L162 268L61 268z" /></clipPath><clipPath id="50"><path id="" clip-rule="evenodd" transform="matrix(1 0 0 1 0 0)" d="M61.56 268.44L161.64 268.44L161.64 268.44L161.64 270.6L161.64 270.6L61.56 270.6z" /></clipPath><clipPath id="51"><path id="" clip-rule="evenodd" transform="matrix(1 0 0 1 0 0)" d="M61 271L162 271L162 271L162 268L162 268L61 268z" /></clipPath><clipPath id="52"><path id="" clip-rule="evenodd" transform="matrix(1 0 0 1 0 0)" d="M39.72 99.71997L184.2 99.71997L184.2 99.71997L184.2 719.88L184.2 719.88L39.72 719.88z" /></clipPath><clipPath id="53"><path id="" clip-rule="evenodd" transform="matrix(1 0 0 1 0 0)" d="M161.64 268.44L162.6 268.44L162.6 268.44L162.6 270.6L162.6 270.6L161.64 270.6z" /></clipPath><clipPath id="54"><path id="" clip-rule="evenodd" transform="matrix(1 0 0 1 0 0)" d="M161.64 268.44L162.6 268.44L162.6 268.44L162.6 270.6L162.6 270.6L161.64 270.6z" /></clipPath><clipPath id="55"><path id="" clip-rule="evenodd" transform="matrix(1 0 0 1 0 0)" d="M161 271L163 271L163 271L163 268L163 268L161 268z" /></clipPath><clipPath id="56"><path id="" clip-rule="evenodd" transform="matrix(1 0 0 1 0 0)" d="M161.64 268.44L162.6 268.44L162.6 268.44L162.6 270.6L162.6 270.6L161.64 270.6z" /></clipPath><clipPath id="57"><path id="" clip-rule="evenodd" transform="matrix(1 0 0 1 0 0)" d="M161 271L163 271L163 271L163 268L163 268L161 268z" /></clipPath><clipPath id="58"><path id="" clip-rule="evenodd" transform="matrix(1 0 0 1 0 0)" d="M39.72 99.71997L184.2 99.71997L184.2 99.71997L184.2 719.88L184.2 719.88L39.72 719.88z" /></clipPath><clipPath id="59"><path id="" clip-rule="evenodd" transform="matrix(1 0 0 1 0 0)" d="M61.56 278.28L162.6 278.28L162.6 278.28L162.6 291L162.6 291L61.56 291z" /></clipPath><clipPath id="60"><path id="" clip-rule="evenodd" transform="matrix(1 0 0 1 0 0)" d="M39.72 99.71997L184.2 99.71997L184.2 99.71997L184.2 719.88L184.2 719.88L39.72 719.88z" /></clipPath><clipPath id="61"><path id="" clip-rule="evenodd" transform="matrix(1 0 0 1 0 0)" d="M61.56 291L141.48 291L141.48 291L141.48 293.4L141.48 293.4L61.56 293.4z" /></clipPath><clipPath id="62"><path id="" clip-rule="evenodd" transform="matrix(1 0 0 1 0 0)" d="M61.56 291L141.48 291L141.48 291L141.48 293.4L141.48 293.4L61.56 293.4z" /></clipPath><clipPath id="63"><path id="" clip-rule="evenodd" transform="matrix(1 0 0 1 0 0)" d="M61 294L142 294L142 294L142 290L142 290L61 290z" /></clipPath><clipPath id="64"><path id="" clip-rule="evenodd" transform="matrix(1 0 0 1 0 0)" d="M61.56 291L141.48 291L141.48 291L141.48 293.4L141.48 293.4L61.56 293.4z" /></clipPath><clipPath id="65"><path id="" clip-rule="evenodd" transform="matrix(1 0 0 1 0 0)" d="M61 294L142 294L142 294L142 290L142 290L61 290z" /></clipPath><clipPath id="66"><path id="" clip-rule="evenodd" transform="matrix(1 0 0 1 0 0)" d="M39.72 99.71997L184.2 99.71997L184.2 99.71997L184.2 719.88L184.2 719.88L39.72 719.88z" /></clipPath><clipPath id="67"><path id="" clip-rule="evenodd" transform="matrix(1 0 0 1 0 0)" d="M141.48 291L162.6 291L162.6 291L162.6 293.4L162.6 293.4L141.48 293.4z" /></clipPath><clipPath id="68"><path id="" clip-rule="evenodd" transform="matrix(1 0 0 1 0 0)" d="M141.48 291L162.6 291L162.6 291L162.6 293.4L162.6 293.4L141.48 293.4z" /></clipPath><clipPath id="69"><path id="" clip-rule="evenodd" transform="matrix(1 0 0 1 0 0)" d="M141 294L163 294L163 294L163 290L163 290L141 290z" /></clipPath><clipPath id="70"><path id="" clip-rule="evenodd" transform="matrix(1 0 0 1 0 0)" d="M141.48 291L162.6 291L162.6 291L162.6 293.4L162.6 293.4L141.48 293.4z" /></clipPath><clipPath id="71"><path id="" clip-rule="evenodd" transform="matrix(1 0 0 1 0 0)" d="M141 294L163 294L163 294L163 290L163 290L141 290z" /></clipPath><clipPath id="72"><path id="" clip-rule="evenodd" transform="matrix(1 0 0 1 0 0)" d="M39.72 99.71997L184.2 99.71997L184.2 99.71997L184.2 719.88L184.2 719.88L39.72 719.88z" /></clipPath><clipPath id="73"><path id="" clip-rule="evenodd" transform="matrix(1 0 0 1 0 0)" d="M61.56 301.08L162.6 301.08L162.6 301.08L162.6 313.8L162.6 313.8L61.56 313.8z" /></clipPath><clipPath id="74"><path id="" clip-rule="evenodd" transform="matrix(1 0 0 1 0 0)" d="M39.72 99.71997L184.2 99.71997L184.2 99.71997L184.2 719.88L184.2 719.88L39.72 719.88z" /></clipPath><clipPath id="75"><path id="" clip-rule="evenodd" transform="matrix(1 0 0 1 0 0)" d="M61.56 313.8L161.64 313.8L161.64 313.8L161.64 315.96L161.64 315.96L61.56 315.96z" /></clipPath><clipPath id="76"><path id="" clip-rule="evenodd" transform="matrix(1 0 0 1 0 0)" d="M61.56 313.8L161.64 313.8L161.64 313.8L161.64 315.96L161.64 315.96L61.56 315.96z" /></clipPath><clipPath id="77"><path id="" clip-rule="evenodd" transform="matrix(1 0 0 1 0 0)" d="M61 316L162 316L162 316L162 313L162 313L61 313z" /></clipPath><clipPath id="78"><path id="" clip-rule="evenodd" transform="matrix(1 0 0 1 0 0)" d="M61.56 313.8L161.64 313.8L161.64 313.8L161.64 315.96L161.64 315.96L61.56 315.96z" /></clipPath><clipPath id="79"><path id="" clip-rule="evenodd" transform="matrix(1 0 0 1 0 0)" d="M61 316L162 316L162 316L162 313L162 313L61 313z" /></clipPath><clipPath id="80"><path id="" clip-rule="evenodd" transform="matrix(1 0 0 1 0 0)" d="M39.72 99.71997L184.2 99.71997L184.2 99.71997L184.2 719.88L184.2 719.88L39.72 719.88z" /></clipPath><clipPath id="81"><path id="" clip-rule="evenodd" transform="matrix(1 0 0 1 0 0)" d="M161.64 313.8L162.6 313.8L162.6 313.8L162.6 315.96L162.6 315.96L161.64 315.96z" /></clipPath><clipPath id="82"><path id="" clip-rule="evenodd" transform="matrix(1 0 0 1 0 0)" d="M161.64 313.8L162.6 313.8L162.6 313.8L162.6 315.96L162.6 315.96L161.64 315.96z" /></clipPath><clipPath id="83"><path id="" clip-rule="evenodd" transform="matrix(1 0 0 1 0 0)" d="M161 316L163 316L163 316L163 313L163 313L161 313z" /></clipPath><clipPath id="84"><path id="" clip-rule="evenodd" transform="matrix(1 0 0 1 0 0)" d="M161.64 313.8L162.6 313.8L162.6 313.8L162.6 315.96L162.6 315.96L161.64 315.96z" /></clipPath><clipPath id="85"><path id="" clip-rule="evenodd" transform="matrix(1 0 0 1 0 0)" d="M161 316L163 316L163 316L163 313L163 313L161 313z" /></clipPath><clipPath id="86"><path id="" clip-rule="evenodd" transform="matrix(1 0 0 1 0 0)" d="M39.72 99.71997L184.2 99.71997L184.2 99.71997L184.2 719.88L184.2 719.88L39.72 719.88z" /></clipPath><clipPath id="87"><path id="" clip-rule="evenodd" transform="matrix(1 0 0 1 0 0)" d="M61.56 323.64L162.6 323.64L162.6 323.64L162.6 336.36L162.6 336.36L61.56 336.36z" /></clipPath><clipPath id="88"><path id="" clip-rule="evenodd" transform="matrix(1 0 0 1 0 0)" d="M39.72 99.71997L184.2 99.71997L184.2 99.71997L184.2 719.88L184.2 719.88L39.72 719.88z" /></clipPath><clipPath id="89"><path id="" clip-rule="evenodd" transform="matrix(1 0 0 1 0 0)" d="M61.56 336.36L161.64 336.36L161.64 336.36L161.64 338.76L161.64 338.76L61.56 338.76z" /></clipPath><clipPath id="90"><path id="" clip-rule="evenodd" transform="matrix(1 0 0 1 0 0)" d="M61.56 336.36L161.64 336.36L161.64 336.36L161.64 338.76L161.64 338.76L61.56 338.76z" /></clipPath><clipPath id="91"><path id="" clip-rule="evenodd" transform="matrix(1 0 0 1 0 0)" d="M61 339L162 339L162 339L162 336L162 336L61 336z" /></clipPath><clipPath id="92"><path id="" clip-rule="evenodd" transform="matrix(1 0 0 1 0 0)" d="M61.56 336.36L161.64 336.36L161.64 336.36L161.64 338.76L161.64 338.76L61.56 338.76z" /></clipPath><clipPath id="93"><path id="" clip-rule="evenodd" transform="matrix(1 0 0 1 0 0)" d="M61 339L162 339L162 339L162 336L162 336L61 336z" /></clipPath><clipPath id="94"><path id="" clip-rule="evenodd" transform="matrix(1 0 0 1 0 0)" d="M39.72 99.71997L184.2 99.71997L184.2 99.71997L184.2 719.88L184.2 719.88L39.72 719.88z" /></clipPath><clipPath id="95"><path id="" clip-rule="evenodd" transform="matrix(1 0 0 1 0 0)" d="M161.64 336.36L162.6 336.36L162.6 336.36L162.6 338.76L162.6 338.76L161.64 338.76z" /></clipPath><clipPath id="96"><path id="" clip-rule="evenodd" transform="matrix(1 0 0 1 0 0)" d="M161.64 336.36L162.6 336.36L162.6 336.36L162.6 338.76L162.6 338.76L161.64 338.76z" /></clipPath><clipPath id="97"><path id="" clip-rule="evenodd" transform="matrix(1 0 0 1 0 0)" d="M161 339L163 339L163 339L163 336L163 336L161 336z" /></clipPath><clipPath id="98"><path id="" clip-rule="evenodd" transform="matrix(1 0 0 1 0 0)" d="M161.64 336.36L162.6 336.36L162.6 336.36L162.6 338.76L162.6 338.76L161.64 338.76z" /></clipPath><clipPath id="99"><path id="" clip-rule="evenodd" transform="matrix(1 0 0 1 0 0)" d="M161 339L163 339L163 339L163 336L163 336L161 336z" /></clipPath><clipPath id="100"><path id="" clip-rule="evenodd" transform="matrix(1 0 0 1 0 0)" d="M39.72 99.71997L184.2 99.71997L184.2 99.71997L184.2 719.88L184.2 719.88L39.72 719.88z" /></clipPath><clipPath id="101"><path id="" clip-rule="evenodd" transform="matrix(1 0 0 1 0 0)" d="M61.56 346.44L162.6 346.44L162.6 346.44L162.6 359.16L162.6 359.16L61.56 359.16z" /></clipPath><clipPath id="102"><path id="" clip-rule="evenodd" transform="matrix(1 0 0 1 0 0)" d="M39.72 99.71997L184.2 99.71997L184.2 99.71997L184.2 719.88L184.2 719.88L39.72 719.88z" /></clipPath><clipPath id="103"><path id="" clip-rule="evenodd" transform="matrix(1 0 0 1 0 0)" d="M61.56 359.16L141.48 359.16L141.48 359.16L141.48 361.56L141.48 361.56L61.56 361.56z" /></clipPath><clipPath id="104"><path id="" clip-rule="evenodd" transform="matrix(1 0 0 1 0 0)" d="M61.56 359.16L141.48 359.16L141.48 359.16L141.48 361.56L141.48 361.56L61.56 361.56z" /></clipPath><clipPath id="105"><path id="" clip-rule="evenodd" transform="matrix(1 0 0 1 0 0)" d="M61 362L142 362L142 362L142 359L142 359L61 359z" /></clipPath><clipPath id="106"><path id="" clip-rule="evenodd" transform="matrix(1 0 0 1 0 0)" d="M61.56 359.16L141.48 359.16L141.48 359.16L141.48 361.56L141.48 361.56L61.56 361.56z" /></clipPath><clipPath id="107"><path id="" clip-rule="evenodd" transform="matrix(1 0 0 1 0 0)" d="M61 362L142 362L142 362L142 359L142 359L61 359z" /></clipPath><clipPath id="108"><path id="" clip-rule="evenodd" transform="matrix(1 0 0 1 0 0)" d="M39.72 99.71997L184.2 99.71997L184.2 99.71997L184.2 719.88L184.2 719.88L39.72 719.88z" /></clipPath><clipPath id="109"><path id="" clip-rule="evenodd" transform="matrix(1 0 0 1 0 0)" d="M141.48 359.16L162.6 359.16L162.6 359.16L162.6 361.56L162.6 361.56L141.48 361.56z" /></clipPath><clipPath id="110"><path id="" clip-rule="evenodd" transform="matrix(1 0 0 1 0 0)" d="M141.48 359.16L162.6 359.16L162.6 359.16L162.6 361.56L162.6 361.56L141.48 361.56z" /></clipPath><clipPath id="111"><path id="" clip-rule="evenodd" transform="matrix(1 0 0 1 0 0)" d="M141 362L163 362L163 362L163 359L163 359L141 359z" /></clipPath><clipPath id="112"><path id="" clip-rule="evenodd" transform="matrix(1 0 0 1 0 0)" d="M141.48 359.16L162.6 359.16L162.6 359.16L162.6 361.56L162.6 361.56L141.48 361.56z" /></clipPath><clipPath id="113"><path id="" clip-rule="evenodd" transform="matrix(1 0 0 1 0 0)" d="M141 362L163 362L163 362L163 359L163 359L141 359z" /></clipPath><clipPath id="114"><path id="" clip-rule="evenodd" transform="matrix(1 0 0 1 0 0)" d="M39.72 99.71997L184.2 99.71997L184.2 99.71997L184.2 719.88L184.2 719.88L39.72 719.88z" /></clipPath><clipPath id="115"><path id="" clip-rule="evenodd" transform="matrix(1 0 0 1 0 0)" d="M61.56 369L162.6 369L162.6 369L162.6 381.72L162.6 381.72L61.56 381.72z" /></clipPath><clipPath id="116"><path id="" clip-rule="evenodd" transform="matrix(1 0 0 1 0 0)" d="M39.72 99.71997L184.2 99.71997L184.2 99.71997L184.2 719.88L184.2 719.88L39.72 719.88z" /></clipPath><clipPath id="117"><path id="" clip-rule="evenodd" transform="matrix(1 0 0 1 0 0)" d="M61.56 381.72L141.48 381.72L141.48 381.72L141.48 384.12L141.48 384.12L61.56 384.12z" /></clipPath><clipPath id="118"><path id="" clip-rule="evenodd" transform="matrix(1 0 0 1 0 0)" d="M61.56 381.72L141.48 381.72L141.48 381.72L141.48 384.12L141.48 384.12L61.56 384.12z" /></clipPath><clipPath id="119"><path id="" clip-rule="evenodd" transform="matrix(1 0 0 1 0 0)" d="M61 385L142 385L142 385L142 381L142 381L61 381z" /></clipPath><clipPath id="120"><path id="" clip-rule="evenodd" transform="matrix(1 0 0 1 0 0)" d="M61.56 381.72L141.48 381.72L141.48 381.72L141.48 384.12L141.48 384.12L61.56 384.12z" /></clipPath><clipPath id="121"><path id="" clip-rule="evenodd" transform="matrix(1 0 0 1 0 0)" d="M61 385L142 385L142 385L142 381L142 381L61 381z" /></clipPath><clipPath id="122"><path id="" clip-rule="evenodd" transform="matrix(1 0 0 1 0 0)" d="M39.72 99.71997L184.2 99.71997L184.2 99.71997L184.2 719.88L184.2 719.88L39.72 719.88z" /></clipPath><clipPath id="123"><path id="" clip-rule="evenodd" transform="matrix(1 0 0 1 0 0)" d="M141.48 381.72L162.6 381.72L162.6 381.72L162.6 384.12L162.6 384.12L141.48 384.12z" /></clipPath><clipPath id="124"><path id="" clip-rule="evenodd" transform="matrix(1 0 0 1 0 0)" d="M141.48 381.72L162.6 381.72L162.6 381.72L162.6 384.12L162.6 384.12L141.48 384.12z" /></clipPath><clipPath id="125"><path id="" clip-rule="evenodd" transform="matrix(1 0 0 1 0 0)" d="M141 385L163 385L163 385L163 381L163 381L141 381z" /></clipPath><clipPath id="126"><path id="" clip-rule="evenodd" transform="matrix(1 0 0 1 0 0)" d="M141.48 381.72L162.6 381.72L162.6 381.72L162.6 384.12L162.6 384.12L141.48 384.12z" /></clipPath><clipPath id="127"><path id="" clip-rule="evenodd" transform="matrix(1 0 0 1 0 0)" d="M141 385L163 385L163 385L163 381L163 381L141 381z" /></clipPath><clipPath id="128"><path id="" clip-rule="evenodd" transform="matrix(1 0 0 1 0 0)" d="M39.72 99.71997L184.2 99.71997L184.2 99.71997L184.2 719.88L184.2 719.88L39.72 719.88z" /></clipPath><clipPath id="129"><path id="" clip-rule="evenodd" transform="matrix(1 0 0 1 0 0)" d="M61.56 391.8L162.6 391.8L162.6 391.8L162.6 404.52L162.6 404.52L61.56 404.52z" /></clipPath><clipPath id="130"><path id="" clip-rule="evenodd" transform="matrix(1 0 0 1 0 0)" d="M61.56 391.8L162.6 391.8L162.6 391.8L162.6 404.52L162.6 404.52L61.56 404.52z" /></clipPath><clipPath id="131"><path id="" clip-rule="evenodd" transform="matrix(1 0 0 1 0 0)" d="M61 405L163 405L163 405L163 391L163 391L61 391z" /></clipPath><clipPath id="132"><path id="" clip-rule="evenodd" transform="matrix(1 0 0 1 0 0)" d="M39.72 99.71997L184.2 99.71997L184.2 99.71997L184.2 719.88L184.2 719.88L39.72 719.88z" /></clipPath><clipPath id="133"><path id="" clip-rule="evenodd" transform="matrix(1 0 0 1 0 0)" d="M61.56 404.52L161.64 404.52L161.64 404.52L161.64 406.92L161.64 406.92L61.56 406.92z" /></clipPath><clipPath id="134"><path id="" clip-rule="evenodd" transform="matrix(1 0 0 1 0 0)" d="M61.56 404.52L161.64 404.52L161.64 404.52L161.64 406.92L161.64 406.92L61.56 406.92z" /></clipPath><clipPath id="135"><path id="" clip-rule="evenodd" transform="matrix(1 0 0 1 0 0)" d="M61 407L162 407L162 407L162 404L162 404L61 404z" /></clipPath><clipPath id="136"><path id="" clip-rule="evenodd" transform="matrix(1 0 0 1 0 0)" d="M61.56 404.52L161.64 404.52L161.64 404.52L161.64 406.92L161.64 406.92L61.56 406.92z" /></clipPath><clipPath id="137"><path id="" clip-rule="evenodd" transform="matrix(1 0 0 1 0 0)" d="M61 407L162 407L162 407L162 404L162 404L61 404z" /></clipPath><clipPath id="138"><path id="" clip-rule="evenodd" transform="matrix(1 0 0 1 0 0)" d="M39.72 99.71997L184.2 99.71997L184.2 99.71997L184.2 719.88L184.2 719.88L39.72 719.88z" /></clipPath><clipPath id="139"><path id="" clip-rule="evenodd" transform="matrix(1 0 0 1 0 0)" d="M161.64 404.52L162.6 404.52L162.6 404.52L162.6 406.92L162.6 406.92L161.64 406.92z" /></clipPath><clipPath id="140"><path id="" clip-rule="evenodd" transform="matrix(1 0 0 1 0 0)" d="M161.64 404.52L162.6 404.52L162.6 404.52L162.6 406.92L162.6 406.92L161.64 406.92z" /></clipPath><clipPath id="141"><path id="" clip-rule="evenodd" transform="matrix(1 0 0 1 0 0)" d="M161 407L163 407L163 407L163 404L163 404L161 404z" /></clipPath><clipPath id="142"><path id="" clip-rule="evenodd" transform="matrix(1 0 0 1 0 0)" d="M161.64 404.52L162.6 404.52L162.6 404.52L162.6 406.92L162.6 406.92L161.64 406.92z" /></clipPath><clipPath id="143"><path id="" clip-rule="evenodd" transform="matrix(1 0 0 1 0 0)" d="M161 407L163 407L163 407L163 404L163 404L161 404z" /></clipPath><clipPath id="144"><path id="" clip-rule="evenodd" transform="matrix(1 0 0 1 0 0)" d="M39.72 99.71997L184.2 99.71997L184.2 99.71997L184.2 719.88L184.2 719.88L39.72 719.88z" /></clipPath><clipPath id="145"><path id="" clip-rule="evenodd" transform="matrix(1 0 0 1 0 0)" d="M61.56 414.36L162.6 414.36L162.6 414.36L162.6 427.32L162.6 427.32L61.56 427.32z" /></clipPath><clipPath id="146"><path id="" clip-rule="evenodd" transform="matrix(1 0 0 1 0 0)" d="M39.72 99.71997L184.2 99.71997L184.2 99.71997L184.2 719.88L184.2 719.88L39.72 719.88z" /></clipPath><clipPath id="147"><path id="" clip-rule="evenodd" transform="matrix(1 0 0 1 0 0)" d="M61.56 427.32L161.64 427.32L161.64 427.32L161.64 429.48L161.64 429.48L61.56 429.48z" /></clipPath><clipPath id="148"><path id="" clip-rule="evenodd" transform="matrix(1 0 0 1 0 0)" d="M61.56 427.32L161.64 427.32L161.64 427.32L161.64 429.48L161.64 429.48L61.56 429.48z" /></clipPath><clipPath id="149"><path id="" clip-rule="evenodd" transform="matrix(1 0 0 1 0 0)" d="M61 430L162 430L162 430L162 427L162 427L61 427z" /></clipPath><clipPath id="150"><path id="" clip-rule="evenodd" transform="matrix(1 0 0 1 0 0)" d="M61.56 427.32L161.64 427.32L161.64 427.32L161.64 429.48L161.64 429.48L61.56 429.48z" /></clipPath><clipPath id="151"><path id="" clip-rule="evenodd" transform="matrix(1 0 0 1 0 0)" d="M61 430L162 430L162 430L162 427L162 427L61 427z" /></clipPath><clipPath id="152"><path id="" clip-rule="evenodd" transform="matrix(1 0 0 1 0 0)" d="M39.72 99.71997L184.2 99.71997L184.2 99.71997L184.2 719.88L184.2 719.88L39.72 719.88z" /></clipPath><clipPath id="153"><path id="" clip-rule="evenodd" transform="matrix(1 0 0 1 0 0)" d="M161.64 427.32L162.6 427.32L162.6 427.32L162.6 429.48L162.6 429.48L161.64 429.48z" /></clipPath><clipPath id="154"><path id="" clip-rule="evenodd" transform="matrix(1 0 0 1 0 0)" d="M161.64 427.32L162.6 427.32L162.6 427.32L162.6 429.48L162.6 429.48L161.64 429.48z" /></clipPath><clipPath id="155"><path id="" clip-rule="evenodd" transform="matrix(1 0 0 1 0 0)" d="M161 430L163 430L163 430L163 427L163 427L161 427z" /></clipPath><clipPath id="156"><path id="" clip-rule="evenodd" transform="matrix(1 0 0 1 0 0)" d="M161.64 427.32L162.6 427.32L162.6 427.32L162.6 429.48L162.6 429.48L161.64 429.48z" /></clipPath><clipPath id="157"><path id="" clip-rule="evenodd" transform="matrix(1 0 0 1 0 0)" d="M161 430L163 430L163 430L163 427L163 427L161 427z" /></clipPath><clipPath id="158"><path id="" clip-rule="evenodd" transform="matrix(1 0 0 1 0 0)" d="M39.72 99.71997L184.2 99.71997L184.2 99.71997L184.2 719.88L184.2 719.88L39.72 719.88z" /></clipPath><clipPath id="159"><path id="" clip-rule="evenodd" transform="matrix(1 0 0 1 0 0)" d="M61.56 472.92L162.6 472.92L162.6 472.92L162.6 485.64L162.6 485.64L61.56 485.64z" /></clipPath><clipPath id="160"><path id="" clip-rule="evenodd" transform="matrix(1 0 0 1 0 0)" d="M39.72 99.71997L184.2 99.71997L184.2 99.71997L184.2 719.88L184.2 719.88L39.72 719.88z" /></clipPath><clipPath id="161"><path id="" clip-rule="evenodd" transform="matrix(1 0 0 1 0 0)" d="M61.56 485.64L121.08 485.64L121.08 485.64L121.08 488.04L121.08 488.04L61.56 488.04z" /></clipPath><clipPath id="162"><path id="" clip-rule="evenodd" transform="matrix(1 0 0 1 0 0)" d="M61.56 485.64L121.08 485.64L121.08 485.64L121.08 488.04L121.08 488.04L61.56 488.04z" /></clipPath><clipPath id="163"><path id="" clip-rule="evenodd" transform="matrix(1 0 0 1 0 0)" d="M61 489L122 489L122 489L122 485L122 485L61 485z" /></clipPath><clipPath id="164"><path id="" clip-rule="evenodd" transform="matrix(1 0 0 1 0 0)" d="M61.56 485.64L121.08 485.64L121.08 485.64L121.08 488.04L121.08 488.04L61.56 488.04z" /></clipPath><clipPath id="165"><path id="" clip-rule="evenodd" transform="matrix(1 0 0 1 0 0)" d="M61 489L122 489L122 489L122 485L122 485L61 485z" /></clipPath><clipPath id="166"><path id="" clip-rule="evenodd" transform="matrix(1 0 0 1 0 0)" d="M39.72 99.71997L184.2 99.71997L184.2 99.71997L184.2 719.88L184.2 719.88L39.72 719.88z" /></clipPath><clipPath id="167"><path id="" clip-rule="evenodd" transform="matrix(1 0 0 1 0 0)" d="M121.08 485.64L162.6 485.64L162.6 485.64L162.6 488.04L162.6 488.04L121.08 488.04z" /></clipPath><clipPath id="168"><path id="" clip-rule="evenodd" transform="matrix(1 0 0 1 0 0)" d="M121.08 485.64L162.6 485.64L162.6 485.64L162.6 488.04L162.6 488.04L121.08 488.04z" /></clipPath><clipPath id="169"><path id="" clip-rule="evenodd" transform="matrix(1 0 0 1 0 0)" d="M121 489L163 489L163 489L163 485L163 485L121 485z" /></clipPath><clipPath id="170"><path id="" clip-rule="evenodd" transform="matrix(1 0 0 1 0 0)" d="M121.08 485.64L162.6 485.64L162.6 485.64L162.6 488.04L162.6 488.04L121.08 488.04z" /></clipPath><clipPath id="171"><path id="" clip-rule="evenodd" transform="matrix(1 0 0 1 0 0)" d="M121 489L163 489L163 489L163 485L163 485L121 485z" /></clipPath><clipPath id="172"><path id="" clip-rule="evenodd" transform="matrix(1 0 0 1 0 0)" d="M39.72 99.71997L184.2 99.71997L184.2 99.71997L184.2 719.88L184.2 719.88L39.72 719.88z" /></clipPath><clipPath id="173"><path id="" clip-rule="evenodd" transform="matrix(1 0 0 1 0 0)" d="M61.56 495.72L162.6 495.72L162.6 495.72L162.6 508.44L162.6 508.44L61.56 508.44z" /></clipPath><clipPath id="174"><path id="" clip-rule="evenodd" transform="matrix(1 0 0 1 0 0)" d="M39.72 99.71997L184.2 99.71997L184.2 99.71997L184.2 719.88L184.2 719.88L39.72 719.88z" /></clipPath><clipPath id="175"><path id="" clip-rule="evenodd" transform="matrix(1 0 0 1 0 0)" d="M61.56 508.44L161.64 508.44L161.64 508.44L161.64 510.84L161.64 510.84L61.56 510.84z" /></clipPath><clipPath id="176"><path id="" clip-rule="evenodd" transform="matrix(1 0 0 1 0 0)" d="M61.56 508.44L161.64 508.44L161.64 508.44L161.64 510.84L161.64 510.84L61.56 510.84z" /></clipPath><clipPath id="177"><path id="" clip-rule="evenodd" transform="matrix(1 0 0 1 0 0)" d="M61 511L162 511L162 511L162 508L162 508L61 508z" /></clipPath><clipPath id="178"><path id="" clip-rule="evenodd" transform="matrix(1 0 0 1 0 0)" d="M61.56 508.44L161.64 508.44L161.64 508.44L161.64 510.84L161.64 510.84L61.56 510.84z" /></clipPath><clipPath id="179"><path id="" clip-rule="evenodd" transform="matrix(1 0 0 1 0 0)" d="M61 511L162 511L162 511L162 508L162 508L61 508z" /></clipPath><clipPath id="180"><path id="" clip-rule="evenodd" transform="matrix(1 0 0 1 0 0)" d="M39.72 99.71997L184.2 99.71997L184.2 99.71997L184.2 719.88L184.2 719.88L39.72 719.88z" /></clipPath><clipPath id="181"><path id="" clip-rule="evenodd" transform="matrix(1 0 0 1 0 0)" d="M161.64 508.44L162.6 508.44L162.6 508.44L162.6 510.84L162.6 510.84L161.64 510.84z" /></clipPath><clipPath id="182"><path id="" clip-rule="evenodd" transform="matrix(1 0 0 1 0 0)" d="M161.64 508.44L162.6 508.44L162.6 508.44L162.6 510.84L162.6 510.84L161.64 510.84z" /></clipPath><clipPath id="183"><path id="" clip-rule="evenodd" transform="matrix(1 0 0 1 0 0)" d="M161 511L163 511L163 511L163 508L163 508L161 508z" /></clipPath><clipPath id="184"><path id="" clip-rule="evenodd" transform="matrix(1 0 0 1 0 0)" d="M161.64 508.44L162.6 508.44L162.6 508.44L162.6 510.84L162.6 510.84L161.64 510.84z" /></clipPath><clipPath id="185"><path id="" clip-rule="evenodd" transform="matrix(1 0 0 1 0 0)" d="M161 511L163 511L163 511L163 508L163 508L161 508z" /></clipPath><clipPath id="186"><path id="" clip-rule="evenodd" transform="matrix(1 0 0 1 0 0)" d="M39.72 99.71997L184.2 99.71997L184.2 99.71997L184.2 719.88L184.2 719.88L39.72 719.88z" /></clipPath><clipPath id="187"><path id="" clip-rule="evenodd" transform="matrix(1 0 0 1 0 0)" d="M184.2 99.71997L203.64 99.71997L203.64 99.71997L203.64 120.6L203.64 120.6L184.2 120.6z" /></clipPath><clipPath id="188"><path id="" clip-rule="evenodd" transform="matrix(1 0 0 1 0 0)" d="M184 121L204 121L204 121L204 99L204 99L184 99z" /></clipPath><clipPath id="189"><path id="" clip-rule="evenodd" transform="matrix(1 0 0 1 0 0)" d="M203.64 99.71997L549.96 99.71997L549.96 99.71997L549.96 120.6L549.96 120.6L203.64 120.6z" /></clipPath><clipPath id="190"><path id="" clip-rule="evenodd" transform="matrix(1 0 0 1 0 0)" d="M184.2 120.6L190.2 120.6L190.2 120.6L190.2 153.96L190.2 153.96L184.2 153.96z" /></clipPath><clipPath id="191"><path id="" clip-rule="evenodd" transform="matrix(1 0 0 1 0 0)" d="M184 154L191 154L191 154L191 120L191 120L184 120z" /></clipPath><clipPath id="192"><path id="" clip-rule="evenodd" transform="matrix(1 0 0 1 0 0)" d="M190.68 120.6L537 120.6L537 120.6L537 153.96L537 153.96L190.68 153.96z" /></clipPath><clipPath id="193"><path id="" clip-rule="evenodd" transform="matrix(1 0 0 1 0 0)" d="M190 154L537 154L537 154L537 120L537 120L190 120z" /></clipPath><clipPath id="194"><path id="" clip-rule="evenodd" transform="matrix(1 0 0 1 0 0)" d="M190.68 120.6L537 120.6L537 120.6L537 153.96L537 153.96L190.68 153.96z" /></clipPath><clipPath id="195"><path id="" clip-rule="evenodd" transform="matrix(1 0 0 1 0 0)" d="M184.2 99.71997L549.96 99.71997L549.96 99.71997L549.96 719.88L549.96 719.88L184.2 719.88z" /></clipPath><clipPath id="196"><path id="" clip-rule="evenodd" transform="matrix(1 0 0 1 0 0)" d="M184.2 159.72L203.64 159.72L203.64 159.72L203.64 180.36L203.64 180.36L184.2 180.36z" /></clipPath><clipPath id="197"><path id="" clip-rule="evenodd" transform="matrix(1 0 0 1 0 0)" d="M184 181L204 181L204 181L204 159L204 159L184 159z" /></clipPath><clipPath id="198"><path id="" clip-rule="evenodd" transform="matrix(1 0 0 1 0 0)" d="M203.64 159.72L549.96 159.72L549.96 159.72L549.96 180.36L549.96 180.36L203.64 180.36z" /></clipPath><clipPath id="199"><path id="" clip-rule="evenodd" transform="matrix(1 0 0 1 0 0)" d="M184.2 180.36L189.96 180.36L189.96 180.36L189.96 514.68L189.96 514.68L184.2 514.68z" /></clipPath><clipPath id="200"><path id="" clip-rule="evenodd" transform="matrix(1 0 0 1 0 0)" d="M184 515L190 515L190 515L190 180L190 180L184 180z" /></clipPath><clipPath id="201"><path id="" clip-rule="evenodd" transform="matrix(1 0 0 1 0 0)" d="M190.68 180.36L537 180.36L537 180.36L537 514.68L537 514.68L190.68 514.68z" /></clipPath><clipPath id="202"><path id="" clip-rule="evenodd" transform="matrix(1 0 0 1 0 0)" d="M184.2 99.71997L549.96 99.71997L549.96 99.71997L549.96 719.88L549.96 719.88L184.2 719.88z" /></clipPath><clipPath id="203"><path id="" clip-rule="evenodd" transform="matrix(1 0 0 1 0 0)" d="M184.2 520.44L203.64 520.44L203.64 520.44L203.64 541.08L203.64 541.08L184.2 541.08z" /></clipPath><clipPath id="204"><path id="" clip-rule="evenodd" transform="matrix(1 0 0 1 0 0)" d="M184 542L204 542L204 542L204 520L204 520L184 520z" /></clipPath><clipPath id="205"><path id="" clip-rule="evenodd" transform="matrix(1 0 0 1 0 0)" d="M203.64 520.44L549.96 520.44L549.96 520.44L549.96 541.08L549.96 541.08L203.64 541.08z" /></clipPath><clipPath id="206"><path id="" clip-rule="evenodd" transform="matrix(1 0 0 1 0 0)" d="M184.2 541.08L189.96 541.08L189.96 541.08L189.96 584.28L189.96 584.28L184.2 584.28z" /></clipPath><clipPath id="207"><path id="" clip-rule="evenodd" transform="matrix(1 0 0 1 0 0)" d="M184 585L190 585L190 585L190 541L190 541L184 541z" /></clipPath><clipPath id="208"><path id="" clip-rule="evenodd" transform="matrix(1 0 0 1 0 0)" d="M190.68 541.08L537 541.08L537 541.08L537 584.28L537 584.28L190.68 584.28z" /></clipPath><clipPath id="209"><path id="" clip-rule="evenodd" transform="matrix(1 0 0 1 0 0)" d="M184.2 99.71997L549.96 99.71997L549.96 99.71997L549.96 719.88L549.96 719.88L184.2 719.88z" /></clipPath><clipPath id="210"><path id="" clip-rule="evenodd" transform="matrix(1 0 0 1 0 0)" d="M184.2 590.04L203.64 590.04L203.64 590.04L203.64 610.68L203.64 610.68L184.2 610.68z" /></clipPath><clipPath id="211"><path id="" clip-rule="evenodd" transform="matrix(1 0 0 1 0 0)" d="M184 611L204 611L204 611L204 590L204 590L184 590z" /></clipPath><clipPath id="212"><path id="" clip-rule="evenodd" transform="matrix(1 0 0 1 0 0)" d="M203.64 590.04L549.96 590.04L549.96 590.04L549.96 610.68L549.96 610.68L203.64 610.68z" /></clipPath><clipPath id="213"><path id="" clip-rule="evenodd" transform="matrix(1 0 0 1 0 0)" d="M184.2 610.68L189.96 610.68L189.96 610.68L189.96 719.88L189.96 719.88L184.2 719.88z" /></clipPath><clipPath id="214"><path id="" clip-rule="evenodd" transform="matrix(1 0 0 1 0 0)" d="M184 720L190 720L190 720L190 610L190 610L184 610z" /></clipPath><clipPath id="215"><path id="" clip-rule="evenodd" transform="matrix(1 0 0 1 0 0)" d="M190.68 610.68L537 610.68L537 610.68L537 719.88L537 719.88L190.68 719.88z" /></clipPath><clipPath id="216"><path id="" clip-rule="evenodd" transform="matrix(1 0 0 1 0 0)" d="M190.68 610.68L537 610.68L537 610.68L537 719.88L537 719.88L190.68 719.88z" /></clipPath><clipPath id="217"><path id="" clip-rule="evenodd" transform="matrix(1 0 0 1 0 0)" d="M190 720L537 720L537 720L537 610L537 610L190 610z" /></clipPath><clipPath id="218"><path id="" clip-rule="evenodd" transform="matrix(1 0 0 1 0 0)" d="M190.68 610.68L537 610.68L537 610.68L537 719.88L537 719.88L190.68 719.88z" /></clipPath><clipPath id="219"><path id="" clip-rule="evenodd" transform="matrix(1 0 0 1 0 0)" d="M184.2 99.71997L549.96 99.71997L549.96 99.71997L549.96 719.88L549.96 719.88L184.2 719.88z" /></clipPath><clipPath id="220"><path id="" clip-rule="evenodd" transform="matrix(1 0 0 1 0 0)" d="M184.2 99.71997L549.96 99.71997L549.96 99.71997L549.96 719.88L549.96 719.88L184.2 719.88z" /></clipPath><clipPath id="221"><path id="" clip-rule="evenodd" transform="matrix(1 0 0 1 0 0)" d="M184 720L550 720L550 720L550 99L550 99L184 99z" /></clipPath><clipPath id="222"><path id="" clip-rule="evenodd" transform="matrix(1 0 0 1 0 0)" d="M184.1999 103.9649L195.4499 103.9649L195.4499 103.9649L195.4499 115.2149L195.4499 115.2149L184.1999 115.2149z" /></clipPath><clipPath id="223"><path id="" clip-rule="evenodd" transform="matrix(1 0 0 1 0 0)" d="M184.08 115.68L195.84 115.68L195.84 115.68L195.84 103.92L195.84 103.92L184.08 103.92z" /></clipPath><clipPath id="224"><path id="" clip-rule="evenodd" transform="matrix(1 0 0 1 0 0)" d="M184.1999 163.8838L195.4499 163.8838L195.4499 163.8838L195.4499 175.1338L195.4499 175.1338L184.1999 175.1338z" /></clipPath><clipPath id="225"><path id="" clip-rule="evenodd" transform="matrix(1 0 0 1 0 0)" d="M184.08 175.2L195.84 175.2L195.84 175.2L195.84 163.44L195.84 163.44L184.08 163.44z" /></clipPath><clipPath id="226"><path id="" clip-rule="evenodd" transform="matrix(1 0 0 1 0 0)" d="M184.1999 524.6342L195.4499 524.6342L195.4499 524.6342L195.4499 535.8842L195.4499 535.8842L184.1999 535.8842z" /></clipPath><clipPath id="227"><path id="" clip-rule="evenodd" transform="matrix(1 0 0 1 0 0)" d="M184.08 536.16L195.84 536.16L195.84 536.16L195.84 524.4L195.84 524.4L184.08 524.4z" /></clipPath><clipPath id="228"><path id="" clip-rule="evenodd" transform="matrix(1 0 0 1 0 0)" d="M184.1999 594.1489L195.4499 594.1489L195.4499 594.1489L195.4499 605.3989L195.4499 605.3989L184.1999 605.3989z" /></clipPath><clipPath id="229"><path id="" clip-rule="evenodd" transform="matrix(1 0 0 1 0 0)" d="M184.08 605.52L195.84 605.52L195.84 605.52L195.84 593.76L195.84 593.76L184.08 593.76z" /></clipPath><clipPath id="230"><path id="" clip-rule="evenodd" transform="matrix(1 0 0 1 0 0)" d="M80.76315 106.4182L86.76315 106.4182L86.76315 106.4182L86.76315 112.4182L86.76315 112.4182L80.76315 112.4182z" /></clipPath><clipPath id="231"><path id="" clip-rule="evenodd" transform="matrix(1 0 0 1 0 0)" d="M80.4 112.56L86.88 112.56L86.88 112.56L86.88 106.08L86.88 106.08L80.4 106.08z" /></clipPath><clipPath id="232"><path id="" clip-rule="evenodd" transform="matrix(1 0 0 1 0 0)" d="M136.0676 106.4182L142.0676 106.4182L142.0676 106.4182L142.0676 112.4182L142.0676 112.4182L136.0676 112.4182z" /></clipPath><clipPath id="233"><path id="" clip-rule="evenodd" transform="matrix(1 0 0 1 0 0)" d="M135.6 112.56L142.08 112.56L142.08 112.56L142.08 106.08L142.08 106.08L135.6 106.08z" /></clipPath><clipPath id="234"><path id="" clip-rule="evenodd" transform="matrix(1 0 0 1 0 0)" d="M84.09716 193.2683L90.09716 193.2683L90.09716 193.2683L90.09716 199.2683L90.09716 199.2683L84.09716 199.2683z" /></clipPath><clipPath id="235"><path id="" clip-rule="evenodd" transform="matrix(1 0 0 1 0 0)" d="M83.76 199.68L90.24001 199.68L90.24001 199.68L90.24001 193.2L90.24001 193.2L83.76 193.2z" /></clipPath><clipPath id="236"><path id="" clip-rule="evenodd" transform="matrix(1 0 0 1 0 0)" d="M132.7336 193.2683L138.7336 193.2683L138.7336 193.2683L138.7336 199.2683L138.7336 199.2683L132.7336 199.2683z" /></clipPath><clipPath id="237"><path id="" clip-rule="evenodd" transform="matrix(1 0 0 1 0 0)" d="M132.72 199.68L139.2 199.68L139.2 199.68L139.2 193.2L139.2 193.2L132.72 193.2z" /></clipPath><clipPath id="238"><path id="" clip-rule="evenodd" transform="matrix(1 0 0 1 0 0)" d="M71.35842 456.0339L77.35842 456.0339L77.35842 456.0339L77.35842 462.0339L77.35842 462.0339L71.35842 462.0339z" /></clipPath><clipPath id="239"><path id="" clip-rule="evenodd" transform="matrix(1 0 0 1 0 0)" d="M71.04 462.24L77.52 462.24L77.52 462.24L77.52 455.76L77.52 455.76L71.04 455.76z" /></clipPath><clipPath id="240"><path id="" clip-rule="evenodd" transform="matrix(1 0 0 1 0 0)" d="M145.4724 456.0339L151.4724 456.0339L151.4724 456.0339L151.4724 462.0339L151.4724 462.0339L145.4724 462.0339z" /></clipPath><clipPath id="241"><path id="" clip-rule="evenodd" transform="matrix(1 0 0 1 0 0)" d="M145.44 462.24L151.92 462.24L151.92 462.24L151.92 455.76L151.92 455.76L145.44 455.76z" /></clipPath><clipPath id="242"><path id="" clip-rule="evenodd" transform="matrix(1 0 0 1 0 0)" d="M142.4616 61.49933L152.5616 61.49933L152.5616 61.49933L152.5616 73.6192L152.5616 73.6192L142.4616 73.6192z" /></clipPath><clipPath id="243"><path id="" clip-rule="evenodd" transform="matrix(1 0 0 1 0 0)" d="M142.08 73.91998L152.64 73.91998L152.64 73.91998L152.64 61.44L152.64 61.44L142.08 61.44z" /></clipPath><clipPath id="244"><path id="" clip-rule="evenodd" transform="matrix(1 0 0 1 0 0)" d="M392.9741 61.49933L403.0741 61.49933L403.0741 61.49933L403.0741 73.6192L403.0741 73.6192L392.9741 73.6192z" /></clipPath><clipPath id="245"><path id="" clip-rule="evenodd" transform="matrix(1 0 0 1 0 0)" d="M392.88 73.91998L403.44 73.91998L403.44 73.91998L403.44 61.44L403.44 61.44L392.88 61.44z" /></clipPath></defs><g transform="matrix(1.333333 0 0 1.333333 0 0)"><g clip-path="url(#1)"><g clip-path="url(#2)"><g clip-path="url(#3)"></g></g><g clip-path="url(#4)"><g clip-path="url(#5)"></g></g><g clip-path="url(#6)"></g><g clip-path="url(#7)"><g clip-path="url(#8)"></g></g><g clip-path="url(#9)"></g><g clip-path="url(#10)"><g clip-path="url(#11)"></g></g><g clip-path="url(#12)"><g clip-path="url(#13)"></g></g><g clip-path="url(#14)"><g clip-path="url(#15)"></g></g><g clip-path="url(#16)"><path id="184" transform="matrix(1 0 0 -1 0 842)" d="M65.04 670.16L158.64 670.16L158.64 669.44L65.04 669.44z" stroke="none" fill="#0F141F" fill-rule="nonzero" /></g><g clip-path="url(#17)"></g><g clip-path="url(#18)"><path id="207" transform="matrix(1 0 0 -1 0 842)" d="M61.44 619.04L161.52 619.04L161.52 616.88L61.44 616.88z" stroke="none" fill="#0F141F" fill-rule="nonzero" /></g><g clip-path="url(#19)"><path id="208" transform="matrix(1 0 0 -1 0 842)" d="M61.44 619.04L161.52 619.04L161.52 616.88L61.44 616.88z" stroke="none" fill="#0F141F" fill-rule="nonzero" /></g><g clip-path="url(#20)"><g clip-path="url(#21)"></g></g><g clip-path="url(#22)"><g clip-path="url(#23)"></g></g><g clip-path="url(#24)"><path id="209" transform="matrix(1 0 0 -1 0 842)" d="M161.52 619.04L162.48 619.04L162.48 616.88L161.52 616.88z" stroke="none" fill="#0F141F" fill-rule="nonzero" /></g><g clip-path="url(#25)"><path id="210" transform="matrix(1 0 0 -1 0 842)" d="M161.52 619.04L162.48 619.04L162.48 616.88L161.52 616.88z" stroke="none" fill="#0F141F" fill-rule="nonzero" /></g><g clip-path="url(#26)"><g clip-path="url(#27)"></g></g><g clip-path="url(#28)"><g clip-path="url(#29)"></g></g><g clip-path="url(#30)"></g><g clip-path="url(#31)"></g><g clip-path="url(#32)"><path id="227" transform="matrix(1 0 0 -1 0 842)" d="M61.44 596.48L161.52 596.48L161.52 594.08L61.44 594.08z" stroke="none" fill="#0F141F" fill-rule="nonzero" /></g><g clip-path="url(#33)"><path id="228" transform="matrix(1 0 0 -1 0 842)" d="M61.44 596.48L161.52 596.48L161.52 594.08L61.44 594.08z" stroke="none" fill="#0F141F" fill-rule="nonzero" /></g><g clip-path="url(#34)"><g clip-path="url(#35)"></g></g><g clip-path="url(#36)"><g clip-path="url(#37)"></g></g><g clip-path="url(#38)"><path id="229" transform="matrix(1 0 0 -1 0 842)" d="M161.52 596.48L162.48 596.48L162.48 594.08L161.52 594.08z" stroke="none" fill="#0F141F" fill-rule="nonzero" /></g><g clip-path="url(#39)"><path id="230" transform="matrix(1 0 0 -1 0 842)" d="M161.52 596.48L162.48 596.48L162.48 594.08L161.52 594.08z" stroke="none" fill="#0F141F" fill-rule="nonzero" /></g><g clip-path="url(#40)"><g clip-path="url(#41)"></g></g><g clip-path="url(#42)"><g clip-path="url(#43)"></g></g><g clip-path="url(#44)"></g><g clip-path="url(#45)"></g><g clip-path="url(#46)"><path id="250" transform="matrix(1 0 0 -1 0 842)" d="M61.44 573.68L161.52 573.68L161.52 571.52L61.44 571.52z" stroke="none" fill="#0F141F" fill-rule="nonzero" /></g><g clip-path="url(#47)"><path id="251" transform="matrix(1 0 0 -1 0 842)" d="M61.44 573.68L161.52 573.68L161.52 571.52L61.44 571.52z" stroke="none" fill="#0F141F" fill-rule="nonzero" /></g><g clip-path="url(#48)"><g clip-path="url(#49)"></g></g><g clip-path="url(#50)"><g clip-path="url(#51)"></g></g><g clip-path="url(#52)"><path id="252" transform="matrix(1 0 0 -1 0 842)" d="M161.52 573.68L162.48 573.68L162.48 571.52L161.52 571.52z" stroke="none" fill="#0F141F" fill-rule="nonzero" /></g><g clip-path="url(#53)"><path id="253" transform="matrix(1 0 0 -1 0 842)" d="M161.52 573.68L162.48 573.68L162.48 571.52L161.52 571.52z" stroke="none" fill="#0F141F" fill-rule="nonzero" /></g><g clip-path="url(#54)"><g clip-path="url(#55)"></g></g><g clip-path="url(#56)"><g clip-path="url(#57)"></g></g><g clip-path="url(#58)"></g><g clip-path="url(#59)"></g><g clip-path="url(#60)"><path id="276" transform="matrix(1 0 0 -1 0 842)" d="M61.44 551.12L141.36 551.12L141.36 548.72L61.44 548.72z" stroke="none" fill="#0F141F" fill-rule="nonzero" /></g><g clip-path="url(#61)"><path id="277" transform="matrix(1 0 0 -1 0 842)" d="M61.44 551.12L141.36 551.12L141.36 548.72L61.44 548.72z" stroke="none" fill="#0F141F" fill-rule="nonzero" /></g><g clip-path="url(#62)"><g clip-path="url(#63)"></g></g><g clip-path="url(#64)"><g clip-path="url(#65)"></g></g><g clip-path="url(#66)"><path id="278" transform="matrix(1 0 0 -1 0 842)" d="M141.36 551.12L162.48 551.12L162.48 548.72L141.36 548.72z" stroke="none" fill="#CFD6E6" fill-rule="nonzero" /></g><g clip-path="url(#67)"><path id="279" transform="matrix(1 0 0 -1 0 842)" d="M141.36 551.12L162.48 551.12L162.48 548.72L141.36 548.72z" stroke="none" fill="#CFD6E6" fill-rule="nonzero" /></g><g clip-path="url(#68)"><g clip-path="url(#69)"></g></g><g clip-path="url(#70)"><g clip-path="url(#71)"></g></g><g clip-path="url(#72)"></g><g clip-path="url(#73)"></g><g clip-path="url(#74)"><path id="295" transform="matrix(1 0 0 -1 0 842)" d="M61.44 528.32L161.52 528.32L161.52 526.16L61.44 526.16z" stroke="none" fill="#0E131E" fill-rule="nonzero" /></g><g clip-path="url(#75)"><path id="296" transform="matrix(1 0 0 -1 0 842)" d="M61.44 528.32L161.52 528.32L161.52 526.16L61.44 526.16z" stroke="none" fill="#0E131E" fill-rule="nonzero" /></g><g clip-path="url(#76)"><g clip-path="url(#77)"></g></g><g clip-path="url(#78)"><g clip-path="url(#79)"></g></g><g clip-path="url(#80)"><path id="297" transform="matrix(1 0 0 -1 0 842)" d="M161.52 528.32L162.48 528.32L162.48 526.16L161.52 526.16z" stroke="none" fill="#0E131E" fill-rule="nonzero" /></g><g clip-path="url(#81)"><path id="298" transform="matrix(1 0 0 -1 0 842)" d="M161.52 528.32L162.48 528.32L162.48 526.16L161.52 526.16z" stroke="none" fill="#0E131E" fill-rule="nonzero" /></g><g clip-path="url(#82)"><g clip-path="url(#83)"></g></g><g clip-path="url(#84)"><g clip-path="url(#85)"></g></g><g clip-path="url(#86)"></g><g clip-path="url(#87)"></g><g clip-path="url(#88)"><path id="316" transform="matrix(1 0 0 -1 0 842)" d="M61.44 505.76L161.52 505.76L161.52 503.36L61.44 503.36z" stroke="none" fill="#0E131E" fill-rule="nonzero" /></g><g clip-path="url(#89)"><path id="317" transform="matrix(1 0 0 -1 0 842)" d="M61.44 505.76L161.52 505.76L161.52 503.36L61.44 503.36z" stroke="none" fill="#0E131E" fill-rule="nonzero" /></g><g clip-path="url(#90)"><g clip-path="url(#91)"></g></g><g clip-path="url(#92)"><g clip-path="url(#93)"></g></g><g clip-path="url(#94)"><path id="318" transform="matrix(1 0 0 -1 0 842)" d="M161.52 505.76L162.48 505.76L162.48 503.36L161.52 503.36z" stroke="none" fill="#0E131E" fill-rule="nonzero" /></g><g clip-path="url(#95)"><path id="319" transform="matrix(1 0 0 -1 0 842)" d="M161.52 505.76L162.48 505.76L162.48 503.36L161.52 503.36z" stroke="none" fill="#0E131E" fill-rule="nonzero" /></g><g clip-path="url(#96)"><g clip-path="url(#97)"></g></g><g clip-path="url(#98)"><g clip-path="url(#99)"></g></g><g clip-path="url(#100)"></g><g clip-path="url(#101)"></g><g clip-path="url(#102)"><path id="333" transform="matrix(1 0 0 -1 0 842)" d="M61.44 482.96L141.36 482.96L141.36 480.56L61.44 480.56z" stroke="none" fill="#0E131E" fill-rule="nonzero" /></g><g clip-path="url(#103)"><path id="334" transform="matrix(1 0 0 -1 0 842)" d="M61.44 482.96L141.36 482.96L141.36 480.56L61.44 480.56z" stroke="none" fill="#0E131E" fill-rule="nonzero" /></g><g clip-path="url(#104)"><g clip-path="url(#105)"></g></g><g clip-path="url(#106)"><g clip-path="url(#107)"></g></g><g clip-path="url(#108)"><path id="335" transform="matrix(1 0 0 -1 0 842)" d="M141.36 482.96L162.48 482.96L162.48 480.56L141.36 480.56z" stroke="none" fill="#CED5E6" fill-rule="nonzero" /></g><g clip-path="url(#109)"><path id="336" transform="matrix(1 0 0 -1 0 842)" d="M141.36 482.96L162.48 482.96L162.48 480.56L141.36 480.56z" stroke="none" fill="#CED5E6" fill-rule="nonzero" /></g><g clip-path="url(#110)"><g clip-path="url(#111)"></g></g><g clip-path="url(#112)"><g clip-path="url(#113)"></g></g><g clip-path="url(#114)"></g><g clip-path="url(#115)"></g><g clip-path="url(#116)"><path id="348" transform="matrix(1 0 0 -1 0 842)" d="M61.44 460.4L141.36 460.4L141.36 458L61.44 458z" stroke="none" fill="#0E131E" fill-rule="nonzero" /></g><g clip-path="url(#117)"><path id="349" transform="matrix(1 0 0 -1 0 842)" d="M61.44 460.4L141.36 460.4L141.36 458L61.44 458z" stroke="none" fill="#0E131E" fill-rule="nonzero" /></g><g clip-path="url(#118)"><g clip-path="url(#119)"></g></g><g clip-path="url(#120)"><g clip-path="url(#121)"></g></g><g clip-path="url(#122)"><path id="350" transform="matrix(1 0 0 -1 0 842)" d="M141.36 460.4L162.48 460.4L162.48 458L141.36 458z" stroke="none" fill="#CED5E6" fill-rule="nonzero" /></g><g clip-path="url(#123)"><path id="351" transform="matrix(1 0 0 -1 0 842)" d="M141.36 460.4L162.48 460.4L162.48 458L141.36 458z" stroke="none" fill="#CED5E6" fill-rule="nonzero" /></g><g clip-path="url(#124)"><g clip-path="url(#125)"></g></g><g clip-path="url(#126)"><g clip-path="url(#127)"></g></g><g clip-path="url(#128)"></g><g clip-path="url(#129)"></g><g clip-path="url(#130)"><g clip-path="url(#131)"></g></g><g clip-path="url(#132)"><path id="372" transform="matrix(1 0 0 -1 0 842)" d="M61.44 437.6L161.52 437.6L161.52 435.2L61.44 435.2z" stroke="none" fill="#0E131E" fill-rule="nonzero" /></g><g clip-path="url(#133)"><path id="373" transform="matrix(1 0 0 -1 0 842)" d="M61.44 437.6L161.52 437.6L161.52 435.2L61.44 435.2z" stroke="none" fill="#0E131E" fill-rule="nonzero" /></g><g clip-path="url(#134)"><g clip-path="url(#135)"></g></g><g clip-path="url(#136)"><g clip-path="url(#137)"></g></g><g clip-path="url(#138)"><path id="374" transform="matrix(1 0 0 -1 0 842)" d="M161.52 437.6L162.48 437.6L162.48 435.2L161.52 435.2z" stroke="none" fill="#0E131E" fill-rule="nonzero" /></g><g clip-path="url(#139)"><path id="375" transform="matrix(1 0 0 -1 0 842)" d="M161.52 437.6L162.48 437.6L162.48 435.2L161.52 435.2z" stroke="none" fill="#0E131E" fill-rule="nonzero" /></g><g clip-path="url(#140)"><g clip-path="url(#141)"></g></g><g clip-path="url(#142)"><g clip-path="url(#143)"></g></g><g clip-path="url(#144)"></g><g clip-path="url(#145)"></g><g clip-path="url(#146)"><path id="391" transform="matrix(1 0 0 -1 0 842)" d="M61.44 414.8L161.52 414.8L161.52 412.64L61.44 412.64z" stroke="none" fill="#0E131E" fill-rule="nonzero" /></g><g clip-path="url(#147)"><path id="392" transform="matrix(1 0 0 -1 0 842)" d="M61.44 414.8L161.52 414.8L161.52 412.64L61.44 412.64z" stroke="none" fill="#0E131E" fill-rule="nonzero" /></g><g clip-path="url(#148)"><g clip-path="url(#149)"></g></g><g clip-path="url(#150)"><g clip-path="url(#151)"></g></g><g clip-path="url(#152)"><path id="393" transform="matrix(1 0 0 -1 0 842)" d="M161.52 414.8L162.48 414.8L162.48 412.64L161.52 412.64z" stroke="none" fill="#0E131E" fill-rule="nonzero" /></g><g clip-path="url(#153)"><path id="394" transform="matrix(1 0 0 -1 0 842)" d="M161.52 414.8L162.48 414.8L162.48 412.64L161.52 412.64z" stroke="none" fill="#0E131E" fill-rule="nonzero" /></g><g clip-path="url(#154)"><g clip-path="url(#155)"></g></g><g clip-path="url(#156)"><g clip-path="url(#157)"></g></g><g clip-path="url(#158)"></g><g clip-path="url(#159)"></g><g clip-path="url(#160)"><path id="412" transform="matrix(1 0 0 -1 0 842)" d="M61.44 356.48L120.96 356.48L120.96 354.08L61.44 354.08z" stroke="none" fill="#0E131E" fill-rule="nonzero" /></g><g clip-path="url(#161)"><path id="413" transform="matrix(1 0 0 -1 0 842)" d="M61.44 356.48L120.96 356.48L120.96 354.08L61.44 354.08z" stroke="none" fill="#0E131E" fill-rule="nonzero" /></g><g clip-path="url(#162)"><g clip-path="url(#163)"></g></g><g clip-path="url(#164)"><g clip-path="url(#165)"></g></g><g clip-path="url(#166)"><path id="414" transform="matrix(1 0 0 -1 0 842)" d="M120.96 356.48L162.48 356.48L162.48 354.08L120.96 354.08z" stroke="none" fill="#CED5E6" fill-rule="nonzero" /></g><g clip-path="url(#167)"><path id="415" transform="matrix(1 0 0 -1 0 842)" d="M120.96 356.48L162.48 356.48L162.48 354.08L120.96 354.08z" stroke="none" fill="#CED5E6" fill-rule="nonzero" /></g><g clip-path="url(#168)"><g clip-path="url(#169)"></g></g><g clip-path="url(#170)"><g clip-path="url(#171)"></g></g><g clip-path="url(#172)"></g><g clip-path="url(#173)"></g><g clip-path="url(#174)"><path id="423" transform="matrix(1 0 0 -1 0 842)" d="M61.44 333.68L161.52 333.68L161.52 331.28L61.44 331.28z" stroke="none" fill="#0E131E" fill-rule="nonzero" /></g><g clip-path="url(#175)"><path id="424" transform="matrix(1 0 0 -1 0 842)" d="M61.44 333.68L161.52 333.68L161.52 331.28L61.44 331.28z" stroke="none" fill="#0E131E" fill-rule="nonzero" /></g><g clip-path="url(#176)"><g clip-path="url(#177)"></g></g><g clip-path="url(#178)"><g clip-path="url(#179)"></g></g><g clip-path="url(#180)"><path id="425" transform="matrix(1 0 0 -1 0 842)" d="M161.52 333.68L162.48 333.68L162.48 331.28L161.52 331.28z" stroke="none" fill="#0E131E" fill-rule="nonzero" /></g><g clip-path="url(#181)"><path id="426" transform="matrix(1 0 0 -1 0 842)" d="M161.52 333.68L162.48 333.68L162.48 331.28L161.52 331.28z" stroke="none" fill="#0E131E" fill-rule="nonzero" /></g><g clip-path="url(#182)"><g clip-path="url(#183)"></g></g><g clip-path="url(#184)"><g clip-path="url(#185)"></g></g><g clip-path="url(#186)"></g><g clip-path="url(#187)"><g clip-path="url(#188)"></g></g><g clip-path="url(#189)"></g><g clip-path="url(#190)"><g clip-path="url(#191)"></g></g><g clip-path="url(#192)"><g clip-path="url(#193)"></g></g><g clip-path="url(#194)"></g><path id="579" transform="matrix(1 0 0 -1 0 842)" d="M189.84 721.52L190.32 721.52L190.32 688.16L189.84 688.16z" stroke="none" fill="#0E131E" fill-rule="nonzero" /><g clip-path="url(#195)"></g><g clip-path="url(#196)"><g clip-path="url(#197)"></g></g><g clip-path="url(#198)"></g><g clip-path="url(#199)"><g clip-path="url(#200)"></g></g><g clip-path="url(#201)"></g><g clip-path="url(#202)"><path id="1815" transform="matrix(1 0 0 -1 0 842)" d="M189.84 661.76L190.32 661.76L190.32 327.44L189.84 327.44z" stroke="none" fill="#0E131E" fill-rule="nonzero" /></g><g clip-path="url(#203)"><g clip-path="url(#204)"></g></g><g clip-path="url(#205)"></g><g clip-path="url(#206)"><g clip-path="url(#207)"></g></g><g clip-path="url(#208)"></g><g clip-path="url(#209)"><path id="1915" transform="matrix(1 0 0 -1 0 842)" d="M189.84 301.04L190.32 301.04L190.32 257.84L189.84 257.84z" stroke="none" fill="#0E131E" fill-rule="nonzero" /></g><g clip-path="url(#210)"><g clip-path="url(#211)"></g></g><g clip-path="url(#212)"></g><g clip-path="url(#213)"><g clip-path="url(#214)"></g></g><g clip-path="url(#215)"></g><g clip-path="url(#216)"><g clip-path="url(#217)"></g></g><g clip-path="url(#218)"></g><g clip-path="url(#219)"><path id="2309" transform="matrix(1 0 0 -1 0 842)" d="M189.84 231.44L190.32 231.44L190.32 122.24L189.84 122.24z" stroke="none" fill="#0E131E" fill-rule="nonzero" /></g><g clip-path="url(#220)"><g clip-path="url(#221)"></g></g><g clip-path="url(#222)"><g clip-path="url(#223)"><g transform="matrix(0.1875 0 0 0.1875 184.1999 103.9649)"><g transform="matrix(1 0 0 1 0 0)"><image x="0" y="0" xlink:href="img_01.png" width="60" height="60" /></g></g></g></g><g clip-path="url(#224)"><g clip-path="url(#225)"><g transform="matrix(0.1875 0 0 0.1875 184.1999 163.8838)"><g transform="matrix(1 0 0 1 0 0)"><image x="0" y="0" xlink:href="img_02.png" width="60" height="60" /></g></g></g></g><g clip-path="url(#226)"><g clip-path="url(#227)"><g transform="matrix(0.1875 0 0 0.1875 184.1999 524.6342)"><g transform="matrix(1 0 0 1 0 0)"><image x="0" y="0" xlink:href="img_03.png" width="60" height="60" /></g></g></g></g><g clip-path="url(#228)"><g clip-path="url(#229)"><g transform="matrix(0.1875 0 0 0.1875 184.1999 594.1489)"><g transform="matrix(1 0 0 1 0 0)"><image x="0" y="0" xlink:href="img_04.png" width="60" height="60" /></g></g></g></g><g clip-path="url(#230)"><g clip-path="url(#231)"><g transform="matrix(0.2142857 0 0 0.2142857 80.76315 106.4182)"><g transform="matrix(1 0 0 1 0 0)"><image x="0" y="0" xlink:href="img_05.png" width="28" height="28" /></g></g></g></g><g clip-path="url(#232)"><g clip-path="url(#233)"><g transform="matrix(0.2142857 0 0 0.2142857 136.0676 106.4182)"><g transform="matrix(1 0 0 1 0 0)"><image x="0" y="0" xlink:href="img_05.png" width="28" height="28" /></g></g></g></g><g clip-path="url(#234)"><g clip-path="url(#235)"><g transform="matrix(0.2142857 0 0 0.2142857 84.09716 193.2683)"><g transform="matrix(1 0 0 1 0 0)"><image x="0" y="0" xlink:href="img_05.png" width="28" height="28" /></g></g></g></g><g clip-path="url(#236)"><g clip-path="url(#237)"><g transform="matrix(0.2142857 0 0 0.2142857 132.7336 193.2683)"><g transform="matrix(1 0 0 1 0 0)"><image x="0" y="0" xlink:href="img_05.png" width="28" height="28" /></g></g></g></g><g clip-path="url(#238)"><g clip-path="url(#239)"><g transform="matrix(0.2142857 0 0 0.2142857 71.35842 456.0339)"><g transform="matrix(1 0 0 1 0 0)"><image x="0" y="0" xlink:href="img_05.png" width="28" height="28" /></g></g></g></g><g clip-path="url(#240)"><g clip-path="url(#241)"><g transform="matrix(0.2142857 0 0 0.2142857 145.4724 456.0339)"><g transform="matrix(1 0 0 1 0 0)"><image x="0" y="0" xlink:href="img_05.png" width="28" height="28" /></g></g></g></g><g clip-path="url(#242)"><g clip-path="url(#243)"><g transform="matrix(0.101 0 0 0.1009993 142.4616 61.49927)"><g transform="matrix(1 0 0 1 0 0)"><image x="0" y="0" xlink:href="img_06.png" width="100" height="120" /></g></g></g></g><g clip-path="url(#244)"><g clip-path="url(#245)"><g transform="matrix(0.101 0 0 0.1009993 392.9741 61.49927)"><g transform="matrix(1 0 0 1 0 0)"><image x="0" y="0" xlink:href="img_07.png" width="100" height="120" /></g></g></g></g></g></g></svg>